<svg width="25" height="24" viewBox="0 0 25 24" fill="none" xmlns="http://www.w3.org/2000/svg">
<path d="M22.251 10.875H22.25C22.1022 10.8751 21.956 10.9043 21.8195 10.961C21.6831 11.0177 21.5591 11.1006 21.4547 11.2052C21.3504 11.3097 21.2676 11.4338 21.2112 11.5704C21.1548 11.7069 21.1258 11.8532 21.1259 12.001C21.1245 13.5782 20.6908 15.1248 19.8719 16.4728C19.053 17.8208 17.8803 18.9185 16.4813 19.6467C15.0822 20.3748 13.5103 20.7056 11.9365 20.6029C10.3626 20.5003 8.84698 19.9682 7.55434 19.0645C3.65903 16.3369 2.70892 10.9487 5.43648 7.05338C8.16404 3.15802 13.5523 2.20781 17.4476 4.93547C18.0369 5.34703 18.5725 5.83062 19.0419 6.375H15.876C15.5776 6.375 15.2914 6.49353 15.0805 6.7045C14.8695 6.91548 14.751 7.20163 14.751 7.5C14.751 7.79837 14.8695 8.08452 15.0805 8.2955C15.2914 8.50647 15.5776 8.625 15.876 8.625H21.126C21.4243 8.625 21.7105 8.50647 21.9215 8.2955C22.1324 8.08452 22.251 7.79837 22.251 7.5V2.25C22.251 1.95163 22.1324 1.66548 21.9215 1.4545C21.7105 1.24353 21.4243 1.125 21.126 1.125C20.8276 1.125 20.5414 1.24353 20.3305 1.4545C20.1195 1.66548 20.001 1.95163 20.001 2.25V4.12345C19.6062 3.74887 19.1841 3.40417 18.7382 3.0922C17.5684 2.27313 16.2487 1.69248 14.8546 1.3834C13.4604 1.07433 12.019 1.04288 10.6126 1.29086C9.20632 1.53884 7.86261 2.06139 6.65823 2.82867C5.45385 3.59596 4.41239 4.59295 3.59331 5.76272C1.93911 8.12518 1.29115 11.048 1.79197 13.8882C2.29279 16.7284 3.90136 19.2534 6.26383 20.9076C8.08273 22.1887 10.2531 22.8766 12.4779 22.877C13.1187 22.8767 13.7583 22.8205 14.3893 22.709C16.9071 22.2648 19.188 20.9478 20.8314 18.9892C22.4749 17.0307 23.3758 14.5557 23.376 11.999C23.3757 11.7008 23.2571 11.4149 23.0461 11.2042C22.8352 10.9934 22.5492 10.875 22.251 10.875Z" fill="white"/>
</svg>
