<svg width="48" height="48" viewBox="0 0 48 48" fill="none" xmlns="http://www.w3.org/2000/svg">
<g clip-path="url(#clip0_5003_114)">
<path d="M39.7784 17.6628C39.8155 17.7815 39.8505 17.9012 39.8838 18.021C39.9101 18.1161 39.9549 18.205 40.0157 18.2828C40.0764 18.3605 40.1518 18.4256 40.2377 18.4741C40.3236 18.5226 40.4182 18.5538 40.5162 18.5657C40.6141 18.5776 40.7134 18.5701 40.8084 18.5436C40.9034 18.5171 40.9923 18.4721 41.0699 18.4112C41.1475 18.3503 41.2124 18.2747 41.2607 18.1887C41.3091 18.1027 41.34 18.008 41.3517 17.91C41.3634 17.8121 41.3556 17.7128 41.3289 17.6178C41.2915 17.4827 41.252 17.3481 41.2103 17.2142C41.181 17.12 41.1334 17.0325 41.0703 16.9566C41.0071 16.8808 40.9296 16.8182 40.8422 16.7724C40.7548 16.7265 40.6593 16.6984 40.561 16.6895C40.4627 16.6807 40.3636 16.6913 40.2695 16.7208C40.1753 16.7503 40.0879 16.7981 40.0122 16.8615C39.9365 16.9248 39.8741 17.0025 39.8285 17.09C39.7829 17.1775 39.755 17.2731 39.7464 17.3714C39.7378 17.4697 39.7487 17.5687 39.7784 17.6628Z" fill="#14B9FF"/>
<path d="M33.3948 10.1867C33.5059 10.2416 33.6166 10.2984 33.7267 10.3573C33.9028 10.4501 34.1084 10.4692 34.2986 10.4106C34.4887 10.352 34.6479 10.2204 34.7411 10.0447C34.8344 9.86888 34.8541 9.66331 34.7961 9.47299C34.738 9.28268 34.6068 9.12316 34.4313 9.0294C34.3075 8.96314 34.1831 8.89905 34.058 8.83714C33.8791 8.74968 33.6728 8.73676 33.4844 8.80122C33.296 8.86568 33.1408 9.00226 33.053 9.18097C32.9652 9.35969 32.9518 9.56595 33.0159 9.75449C33.08 9.94303 33.2162 10.0985 33.3948 10.1867Z" fill="#14B9FF"/>
<path d="M30.2206 9.13879C30.3424 9.16076 30.4639 9.18456 30.5852 9.21019C30.7801 9.25086 30.9831 9.21259 31.1498 9.10377C31.3166 8.99495 31.4333 8.82447 31.4745 8.62969C31.5157 8.43492 31.478 8.23175 31.3697 8.06474C31.2613 7.89773 31.0911 7.7805 30.8965 7.73876C30.759 7.70948 30.6212 7.68263 30.4832 7.65821C30.2871 7.62392 30.0854 7.66881 29.9223 7.78304C29.7593 7.89726 29.6482 8.0715 29.6134 8.26753C29.5787 8.46356 29.6231 8.66537 29.7369 8.8287C29.8507 8.99204 30.0247 9.10355 30.2206 9.13879Z" fill="#14B9FF"/>
<path d="M36.4461 12.3245C36.5911 12.4608 36.7843 12.5339 36.9832 12.5279C37.1821 12.5219 37.3705 12.4372 37.507 12.2924C37.6435 12.1476 37.717 11.9546 37.7114 11.7557C37.7058 11.5567 37.6214 11.3682 37.4769 11.2314C37.4125 11.1706 37.171 10.949 37.171 10.949C37.0974 10.8833 37.0116 10.8326 36.9185 10.8C36.8254 10.7674 36.7267 10.7535 36.6282 10.759C36.5297 10.7645 36.4332 10.7894 36.3443 10.8321C36.2554 10.8749 36.1758 10.9348 36.1101 11.0084C36.0443 11.0819 35.9937 11.1677 35.961 11.2608C35.9284 11.354 35.9145 11.4526 35.92 11.5511C35.9255 11.6496 35.9504 11.7461 35.9932 11.835C36.0359 11.9239 36.0958 12.0035 36.1694 12.0693C36.1694 12.0693 36.3882 12.2692 36.4461 12.3245Z" fill="#14B9FF"/>
<path d="M38.5534 14.94C38.6046 15.0243 38.672 15.0977 38.7516 15.1559C38.8312 15.2142 38.9215 15.2562 39.0174 15.2795C39.1132 15.3028 39.2127 15.307 39.3102 15.2919C39.4077 15.2767 39.5012 15.2425 39.5854 15.1912C39.6697 15.1398 39.743 15.0724 39.8011 14.9928C39.8593 14.9131 39.9012 14.8227 39.9244 14.7269C39.9476 14.631 39.9517 14.5315 39.9365 14.434C39.9212 14.3366 39.8869 14.2431 39.8355 14.1589C39.7637 14.0402 39.6901 13.9225 39.6147 13.8055C39.5612 13.7227 39.4919 13.6513 39.4107 13.5953C39.3296 13.5393 39.2382 13.4998 39.1418 13.4791C39.0454 13.4584 38.9459 13.4569 38.849 13.4747C38.752 13.4925 38.6595 13.5292 38.5767 13.5827C38.4939 13.6362 38.4225 13.7055 38.3664 13.7867C38.3104 13.8678 38.271 13.9592 38.2503 14.0555C38.2296 14.1519 38.2281 14.2515 38.2458 14.3484C38.2636 14.4454 38.3003 14.5379 38.3538 14.6207C38.4221 14.7265 38.4886 14.833 38.5534 14.94Z" fill="#14B9FF"/>
<path d="M26.9991 9.02172C27.0242 9.02172 27.2479 9.00158 27.2479 9.00158C27.4463 8.98466 27.6298 8.88981 27.7583 8.7378C27.8869 8.58579 27.9499 8.38903 27.9336 8.19063C27.9174 7.99223 27.8231 7.80838 27.6715 7.67936C27.5199 7.55034 27.3233 7.48668 27.1249 7.50233L26.9251 7.521C26.7336 7.54076 26.5569 7.63321 26.4314 7.77932C26.306 7.92544 26.2414 8.11409 26.2509 8.30643C26.2603 8.49876 26.3432 8.68014 26.4824 8.81321C26.6216 8.94628 26.8065 9.0209 26.9991 9.02172Z" fill="#14B9FF"/>
<path d="M41.0069 20.2148C41.001 20.2151 40.9951 20.2163 40.9891 20.217L40.5494 19.5124C40.497 19.4289 40.4287 19.3566 40.3483 19.2995C40.2679 19.2424 40.1771 19.2017 40.081 19.1798C39.9849 19.1578 39.8854 19.155 39.7882 19.1715C39.691 19.1879 39.598 19.2234 39.5145 19.2758C39.431 19.3282 39.3587 19.3966 39.3016 19.477C39.2445 19.5573 39.2039 19.6482 39.1819 19.7443C39.1599 19.8404 39.1571 19.9399 39.1736 20.0371C39.1901 20.1342 39.2255 20.2272 39.278 20.3107L40.424 22.1469C40.4952 22.2577 40.5942 22.348 40.711 22.4087C40.8279 22.4695 40.9586 22.4986 41.0902 22.4932C41.2218 22.4878 41.3497 22.448 41.4612 22.3779C41.5727 22.3078 41.6639 22.2097 41.7257 22.0934L42.666 20.273C42.7116 20.1855 42.7395 20.0899 42.7482 19.9916C42.7568 19.8934 42.746 19.7944 42.7163 19.7003C42.6866 19.6062 42.6387 19.5189 42.5753 19.4433C42.5118 19.3678 42.4341 19.3055 42.3466 19.26C42.259 19.2145 42.1634 19.1867 42.0651 19.1782C41.9668 19.1697 41.8678 19.1807 41.7738 19.2105C41.6797 19.2403 41.5925 19.2883 41.517 19.3519C41.4416 19.4154 41.3794 19.4933 41.334 19.5809L41.0069 20.2148Z" fill="#14B9FF"/>
<path d="M9.70057 38.6313C9.54905 38.5024 9.35256 38.439 9.15432 38.4551C8.95608 38.4711 8.77232 38.5652 8.64348 38.7168C8.51464 38.8683 8.45127 39.0648 8.4673 39.263C8.48334 39.4613 8.57747 39.645 8.72898 39.7738C8.72898 39.7738 8.94817 39.9617 9.03918 40.0368C9.19281 40.1618 9.38964 40.2209 9.58672 40.2013C9.78379 40.1817 9.96512 40.085 10.0911 39.9322C10.2171 39.7794 10.2776 39.5829 10.2593 39.3857C10.241 39.1885 10.1455 39.0066 9.99352 38.8795C9.91132 38.8118 9.70057 38.6313 9.70057 38.6313Z" fill="#14B9FF"/>
<path d="M6.20527 33.4526C6.16589 33.3354 6.12836 33.2179 6.09284 33.0992C6.03494 32.9097 5.90439 32.7508 5.72972 32.6572C5.55505 32.5637 5.35045 32.543 5.16061 32.5998C4.97077 32.6566 4.81112 32.7862 4.71654 32.9604C4.62195 33.1345 4.60012 33.339 4.65581 33.5291C4.69608 33.6639 4.73868 33.7978 4.78361 33.9309C4.84891 34.118 4.98487 34.2721 5.16238 34.3603C5.33989 34.4484 5.54485 34.4636 5.7334 34.4025C5.82677 34.3712 5.91305 34.3217 5.9873 34.257C6.06154 34.1923 6.12231 34.1135 6.16613 34.0253C6.20995 33.9371 6.23596 33.8411 6.24268 33.7428C6.24939 33.6446 6.23668 33.5459 6.20527 33.4526Z" fill="#14B9FF"/>
<path d="M7.50513 36.1182C7.45117 36.0358 7.38151 35.9648 7.30013 35.9094C7.21874 35.8539 7.12722 35.815 7.0308 35.7949C6.93437 35.7747 6.83493 35.7738 6.73815 35.7921C6.64137 35.8105 6.54914 35.8476 6.46674 35.9016C6.38433 35.9556 6.31336 36.0252 6.25788 36.1066C6.2024 36.188 6.16348 36.2795 6.14337 36.3759C6.12325 36.4724 6.12233 36.5718 6.14065 36.6686C6.15896 36.7654 6.19616 36.8576 6.25012 36.94C6.32665 37.0569 6.4052 37.1727 6.48577 37.2876C6.60126 37.4487 6.77533 37.5582 6.97063 37.5925C7.16593 37.6268 7.3669 37.5832 7.53041 37.471C7.61108 37.4145 7.67983 37.3426 7.73272 37.2595C7.78561 37.1764 7.82161 37.0837 7.83867 36.9867C7.85572 36.8896 7.85349 36.7902 7.83211 36.694C7.81073 36.5979 7.77061 36.5069 7.71404 36.4262C7.64264 36.3244 7.57301 36.2217 7.50513 36.1182Z" fill="#14B9FF"/>
<path d="M16.0479 41.6178C15.9254 41.598 15.8031 41.5768 15.6808 41.5533C15.584 41.5347 15.4846 41.5353 15.3881 41.5551C15.2916 41.5749 15.1999 41.6136 15.1183 41.6688C15.0368 41.7241 14.9669 41.7949 14.9127 41.8772C14.8585 41.9594 14.821 42.0516 14.8025 42.1483C14.7839 42.2451 14.7846 42.3445 14.8045 42.441C14.8243 42.5375 14.863 42.6292 14.9184 42.7107C14.9737 42.7922 15.0445 42.862 15.1268 42.9162C15.2091 42.9703 15.3013 43.0077 15.3981 43.0262C15.5354 43.0526 15.8904 43.1083 15.93 43.1083C16.1185 43.108 16.3 43.0368 16.4384 42.9088C16.5768 42.7808 16.6619 42.6054 16.6767 42.4174C16.6916 42.2295 16.6351 42.0429 16.5186 41.8947C16.4021 41.7465 16.234 41.6477 16.0479 41.6178Z" fill="#14B9FF"/>
<path d="M12.8383 40.6521C12.7249 40.6008 12.6122 40.5479 12.5001 40.4931C12.4115 40.4498 12.3153 40.4243 12.2169 40.4182C12.1184 40.4121 12.0198 40.4254 11.9265 40.4575C11.8333 40.4895 11.7473 40.5396 11.6734 40.6049C11.5996 40.6702 11.5393 40.7495 11.4961 40.8381C11.4529 40.9267 11.4276 41.023 11.4216 41.1214C11.4157 41.2199 11.4292 41.3185 11.4614 41.4117C11.4935 41.5049 11.5438 41.5908 11.6092 41.6646C11.6747 41.7383 11.754 41.7985 11.8427 41.8415C11.968 41.9027 12.0939 41.9618 12.2205 42.0188C12.3102 42.0594 12.4071 42.0819 12.5055 42.0851C12.604 42.0883 12.7021 42.072 12.7943 42.0373C12.8865 42.0025 12.9709 41.9499 13.0427 41.8825C13.1146 41.8152 13.1725 41.7343 13.213 41.6445C13.2536 41.5547 13.2761 41.4578 13.2792 41.3594C13.2824 41.2609 13.2661 41.1628 13.2313 41.0707C13.1965 40.9785 13.1438 40.8941 13.0764 40.8223C13.009 40.7505 12.9281 40.6926 12.8383 40.6521Z" fill="#14B9FF"/>
<path d="M5.62721 30.1718L5.625 29.9956C5.62382 29.7975 5.54429 29.6078 5.40377 29.4681C5.26324 29.3284 5.07315 29.25 4.875 29.25H4.87061C4.67171 29.2512 4.48143 29.3314 4.34161 29.4728C4.20179 29.6143 4.12387 29.8055 4.125 30.0044L4.12755 30.2025C4.13153 30.3987 4.21223 30.5854 4.35235 30.7228C4.49246 30.8601 4.68082 30.9371 4.87702 30.9371C4.97734 30.939 5.07699 30.9204 5.16986 30.8824C5.26272 30.8444 5.34685 30.7878 5.41708 30.7161C5.48732 30.6445 5.54219 30.5592 5.57832 30.4656C5.61445 30.372 5.63109 30.272 5.62721 30.1718Z" fill="#14B9FF"/>
<path d="M20.1973 41.7117L18.2358 40.7786C18.0562 40.6931 17.8501 40.6825 17.6626 40.749C17.4752 40.8156 17.3219 40.9539 17.2365 41.1334C17.151 41.313 17.1404 41.5192 17.2069 41.7066C17.2735 41.894 17.4117 42.0474 17.5913 42.1328L18.3366 42.4881L17.7451 42.8696C17.5779 42.9774 17.4604 43.1472 17.4183 43.3416C17.3763 43.536 17.4132 43.7392 17.521 43.9064C17.6303 44.0717 17.8 44.1877 17.9938 44.2296C18.1875 44.2714 18.39 44.2357 18.5577 44.1301L20.2813 43.0191C20.3681 42.9628 20.4424 42.8892 20.4994 42.8028C20.5563 42.7164 20.5948 42.6191 20.6123 42.5172C20.6298 42.4152 20.626 42.3107 20.6011 42.2102C20.5762 42.1098 20.5308 42.0156 20.4677 41.9336C20.3925 41.8431 20.3007 41.7678 20.1973 41.7117Z" fill="#14B9FF"/>
<path d="M8.13356 20.0773C8.17016 19.5935 8.90771 19.1819 9.28766 19.0475L11.284 18.2623V18.3667C11.284 18.5118 11.3262 18.6537 11.4053 18.7754L13.2352 21.5912C13.3032 21.6959 13.3963 21.782 13.5061 21.8416C13.6158 21.9012 13.7387 21.9324 13.8636 21.9325C13.9884 21.9325 14.1117 21.9013 14.2214 21.8418C14.3311 21.7824 14.4243 21.6965 14.4924 21.5919L16.3268 18.7761C16.4061 18.6543 16.4483 18.512 16.4484 18.3667V18.2598L18.4938 19.0592C18.7068 19.1321 19.5758 19.5422 19.6157 20.0696L19.8243 23.2501H21.3274L21.1119 19.9641C21.0143 18.6721 19.7256 17.8954 19.0098 17.6511L16.4427 16.6473V15.7578C16.7964 15.1088 17.0133 14.3941 17.0799 13.6579C17.0964 13.5308 17.1158 13.4034 17.1352 13.276C17.2698 12.3894 17.4371 11.2864 16.6458 10.3225C16.3581 9.95188 15.9972 9.64439 15.5856 9.41917C15.1741 9.19394 14.7205 9.05579 14.2533 9.0133C13.9951 8.99596 13.7361 8.99656 13.478 9.0151C13.0142 9.0599 12.5644 9.19893 12.1563 9.42368C11.7481 9.64843 11.3901 9.95415 11.1042 10.3221C10.3127 11.2864 10.4802 12.3898 10.615 13.2763C10.6342 13.4038 10.6536 13.5312 10.6701 13.6572C10.7389 14.3709 10.9475 15.0642 11.284 15.6974V16.6506L8.77038 17.6398C8.02439 17.8954 6.73571 18.6721 6.63738 19.9714L6.42262 23.2501H7.92573L8.13356 20.0773ZM13.8648 19.8073L12.784 18.1444V17.0165C13.0449 17.1194 13.3172 17.1907 13.595 17.2289C13.7896 17.2554 13.9869 17.2543 14.1811 17.2256C14.4415 17.1871 14.6969 17.1201 14.9427 17.026L14.9484 18.144L13.8648 19.8073ZM12.2637 11.2739C12.4241 11.0585 12.628 10.879 12.862 10.7471C13.096 10.6153 13.3551 10.5338 13.6225 10.5082C13.7866 10.4925 13.9518 10.492 14.116 10.5067C14.3855 10.5311 14.6469 10.612 14.883 10.7443C15.1192 10.8766 15.3247 11.0572 15.4863 11.2743C15.8361 11.7002 15.7773 12.2268 15.652 13.0508C15.6312 13.1888 15.6103 13.3265 15.5923 13.4646C15.3962 14.9767 14.9539 15.5937 13.9592 15.742C13.9093 15.7514 13.8581 15.752 13.808 15.7439C12.8278 15.6055 12.3497 14.9452 12.1576 13.4638C12.1397 13.3269 12.1188 13.1892 12.0979 13.0511C11.9727 12.2268 11.9137 11.7002 12.2637 11.2739Z" fill="#14B9FF"/>
<path d="M22.5 26.25C23.0965 26.2493 23.6685 26.0121 24.0903 25.5903C24.5121 25.1685 24.7494 24.5965 24.75 24V13.5732L26.4364 15.4947C26.5687 15.6425 26.7536 15.7325 26.9515 15.7453C27.1494 15.7582 27.3444 15.693 27.4947 15.5636C27.5688 15.4986 27.6293 15.4197 27.6728 15.3314C27.7163 15.243 27.742 15.147 27.7484 15.0487C27.7548 14.9504 27.7418 14.8518 27.7101 14.7586C27.6784 14.6653 27.6286 14.5793 27.5636 14.5053L23.25 9.5907V3.375C23.25 3.17609 23.171 2.98533 23.0303 2.84468C22.8897 2.70403 22.6989 2.62501 22.5 2.625H19.5C19.3011 2.62501 19.1103 2.70403 18.9697 2.84468C18.829 2.98533 18.75 3.17609 18.75 3.375V4.46336L15.4409 0.693226C15.2415 0.473606 14.9981 0.298393 14.7265 0.178968C14.4549 0.0595428 14.1613 -0.00142468 13.8646 2.52679e-05C13.568 0.00147522 13.2749 0.0653102 13.0045 0.187384C12.7341 0.309458 12.4925 0.487042 12.2952 0.708601L0.18642 14.5053C0.121197 14.5792 0.0712049 14.6653 0.0393059 14.7587C0.0074069 14.852 -0.00577256 14.9507 0.000522097 15.0491C0.00681676 15.1475 0.0324619 15.2437 0.0759893 15.3322C0.119517 15.4207 0.180072 15.4998 0.254187 15.5648C0.328302 15.6299 0.414522 15.6797 0.507911 15.7114C0.6013 15.7431 0.700023 15.756 0.798428 15.7495C0.896834 15.743 0.992989 15.7172 1.08139 15.6734C1.16979 15.6297 1.2487 15.569 1.3136 15.4947L3.00001 13.5732V24C3.00066 24.5965 3.23792 25.1685 3.65974 25.5903C4.08155 26.0121 4.65347 26.2493 5.25001 26.25H22.5ZM20.25 4.125H21.75V7.8816L20.25 6.1725V4.125ZM4.50001 24V11.8641L13.4085 1.71349C13.467 1.65084 13.5376 1.60062 13.616 1.56581C13.6944 1.531 13.7789 1.51233 13.8647 1.51089C13.9504 1.50946 14.0356 1.52529 14.1151 1.55746C14.1946 1.58962 14.2668 1.63746 14.3274 1.69811L23.25 11.8641V24C23.2498 24.1988 23.1707 24.3895 23.0301 24.5301C22.8895 24.6707 22.6988 24.7498 22.5 24.75H5.25001C5.05117 24.7498 4.86054 24.6707 4.71993 24.5301C4.57933 24.3895 4.50024 24.1988 4.50001 24Z" fill="#14B9FF"/>
<path d="M33.728 30.7651C33.2642 30.8099 32.8144 30.9489 32.4063 31.1737C31.9981 31.3984 31.6401 31.7042 31.3542 32.0721C30.5627 33.0364 30.7302 34.1398 30.865 35.0263C30.8842 35.1538 30.9036 35.2812 30.9201 35.4072C30.9889 36.1209 31.1975 36.8142 31.534 37.4474V38.4006L29.0204 39.3898C28.2744 39.6454 26.9857 40.4221 26.8874 41.7214L26.6726 45.0001H28.1757L28.3836 41.8273C28.4202 41.3435 29.1577 40.9319 29.5377 40.7975L31.534 40.0123V40.1167C31.534 40.2618 31.5762 40.4037 31.6553 40.5254L33.4852 43.3412C33.5532 43.4459 33.6463 43.532 33.7561 43.5916C33.8658 43.6512 33.9887 43.6824 34.1136 43.6825C34.2384 43.6825 34.3617 43.6513 34.4714 43.5918C34.5811 43.5324 34.6743 43.4465 34.7424 43.3419L36.5768 40.5261C36.6561 40.4043 36.6983 40.262 36.6984 40.1167V40.0097L38.7438 40.8092C38.9568 40.8821 39.8258 41.2922 39.8657 41.8196L40.0743 45.0001H41.5774L41.3619 41.7141C41.2643 40.4221 39.9756 39.6454 39.2598 39.4011L36.6927 38.3973V37.5078C37.0464 36.8588 37.2633 36.1441 37.3299 35.4079C37.3464 35.2808 37.3658 35.1534 37.3852 35.026C37.5198 34.1394 37.6871 33.0364 36.8958 32.0725C36.6081 31.7019 36.2472 31.3944 35.8356 31.1692C35.4241 30.9439 34.9705 30.8058 34.5033 30.7633C34.2451 30.746 33.9861 30.7466 33.728 30.7651ZM34.1148 41.5573L33.034 39.8944V38.7665C33.2949 38.8694 33.5672 38.9407 33.845 38.9789C34.0396 39.0054 34.2369 39.0043 34.4311 38.9756C34.6915 38.9371 34.9469 38.8701 35.1927 38.776L35.1984 39.894L34.1148 41.5573ZM35.7363 33.0243C36.0861 33.4502 36.0273 33.9768 35.902 34.8008C35.8812 34.9388 35.8603 35.0765 35.8423 35.2146C35.6462 36.7267 35.2039 37.3437 34.2092 37.492C34.1593 37.5014 34.1081 37.502 34.058 37.4939C33.0778 37.3555 32.5997 36.6952 32.4076 35.2138C32.3897 35.0769 32.3688 34.9392 32.3479 34.8011C32.2227 33.9768 32.1637 33.4502 32.5137 33.0239C32.6741 32.8085 32.878 32.629 33.112 32.4971C33.346 32.3653 33.6051 32.2838 33.8725 32.2582C34.0366 32.2425 34.2018 32.242 34.366 32.2567C34.6355 32.2811 34.8969 32.362 35.133 32.4943C35.3692 32.6266 35.5747 32.8072 35.7363 33.0243Z" fill="#14B9FF"/>
<path d="M47.8136 36.2553L43.5 31.3407V25.125C43.5 24.9261 43.421 24.7353 43.2803 24.5947C43.1397 24.454 42.9489 24.375 42.75 24.375H39.75C39.5511 24.375 39.3603 24.454 39.2197 24.5947C39.079 24.7353 39 24.9261 39 25.125V26.2134L35.6909 22.4432C35.4915 22.2236 35.2481 22.0484 34.9765 21.929C34.7049 21.8095 34.4113 21.7486 34.1146 21.75C33.8179 21.7515 33.5249 21.8153 33.2545 21.9374C32.9841 22.0595 32.7424 22.237 32.5452 22.4586L20.4364 36.2553C20.3712 36.3292 20.3212 36.4153 20.2893 36.5087C20.2574 36.602 20.2442 36.7007 20.2505 36.7991C20.2568 36.8975 20.2824 36.9937 20.326 37.0822C20.3695 37.1707 20.4301 37.2498 20.5042 37.3148C20.5783 37.3799 20.6645 37.4297 20.7579 37.4614C20.8513 37.4931 20.95 37.506 21.0484 37.4995C21.1468 37.493 21.243 37.4672 21.3314 37.4234C21.4198 37.3797 21.4987 37.319 21.5636 37.2447L23.25 35.3232V45.75C23.2506 46.3465 23.4879 46.9185 23.9097 47.3403C24.3315 47.7621 24.9035 47.9993 25.5 48H42.75C43.3465 47.9993 43.9185 47.7621 44.3403 47.3403C44.7621 46.9185 44.9993 46.3465 45 45.75V35.3232L46.6864 37.2447C46.8187 37.3925 47.0036 37.4825 47.2015 37.4953C47.3994 37.5082 47.5944 37.443 47.7447 37.3136C47.8188 37.2486 47.8793 37.1697 47.9228 37.0814C47.9663 36.993 47.992 36.897 47.9984 36.7987C48.0048 36.7004 47.9918 36.6018 47.9601 36.5086C47.9283 36.4153 47.8786 36.3293 47.8136 36.2553ZM40.5 25.875H42V29.6316L40.5 27.9225V25.875ZM43.5 45.75C43.4998 45.9488 43.4207 46.1395 43.2801 46.2801C43.1395 46.4207 42.9488 46.4998 42.75 46.5H25.5C25.3012 46.4998 25.1105 46.4207 24.9699 46.2801C24.8293 46.1395 24.7502 45.9488 24.75 45.75V33.6141L33.6585 23.4635C33.717 23.4008 33.7876 23.3506 33.866 23.3158C33.9444 23.281 34.0289 23.2623 34.1147 23.2609C34.2004 23.2595 34.2856 23.2753 34.3651 23.3075C34.4446 23.3396 34.5168 23.3875 34.5774 23.4481L43.5 33.6141V45.75Z" fill="#14B9FF"/>
</g>
<defs>
<clipPath id="clip0_5003_114">
<rect width="48" height="48" fill="white"/>
</clipPath>
</defs>
</svg>
