<svg width="48" height="48" viewBox="0 0 48 48" fill="none" xmlns="http://www.w3.org/2000/svg">
<g clip-path="url(#clip0_5003_36)">
<path d="M46.216 38.848L45.5145 37.441C45.0309 36.474 44.1192 35.8483 43.1009 35.714C43.4865 34.2085 43.326 32.6115 42.6197 31.1996L39.0786 24.1063L38.8139 21.3221C38.5709 18.7551 38.5643 16.4241 38.7937 14.1953C38.805 14.0846 38.8127 13.9737 38.8182 13.8627C39.1773 13.9974 39.5543 14.0645 39.9304 14.0645C40.8432 14.0644 41.7496 13.673 42.3754 12.9162L43.3763 11.7055C44.4896 10.359 44.2997 8.3576 42.9531 7.24421L41.2436 5.83092C40.9444 5.5836 40.5011 5.62551 40.2536 5.92486C40.0061 6.22411 40.0482 6.66737 40.3476 6.91477L42.057 8.32807C42.806 8.94729 42.9116 10.0605 42.2924 10.8096L41.2916 12.0202C40.6724 12.769 39.5591 12.8749 38.8101 12.2556L30.9266 5.73792C30.1776 5.11869 30.072 4.00549 30.6912 3.25652L31.6921 2.04591C31.9921 1.683 32.4155 1.45866 32.8842 1.41422C33.3528 1.37025 33.8108 1.5105 34.1736 1.8106L37.9169 4.90532C38.2162 5.15272 38.6595 5.11063 38.9069 4.81147C39.1544 4.51222 39.1123 4.06896 38.8131 3.82146L35.0698 0.726744C34.4175 0.187395 33.5946 -0.0657323 32.7514 0.0142372C31.9088 0.0942068 31.1477 0.497429 30.6084 1.14975L29.6076 2.36054C29.0682 3.01286 28.8153 3.83618 28.8952 4.67891C28.9141 4.87897 28.9519 5.07425 29.0063 5.26326C27.4735 5.52013 26.0782 6.31683 25.0719 7.53531L23.5119 9.42214C23.2644 9.72139 23.3065 10.1646 23.6057 10.4122C23.7368 10.5205 23.8956 10.5734 24.0534 10.5734C24.2557 10.5734 24.4566 10.4864 24.5956 10.3183L26.1559 8.43119C27.0611 7.33515 28.368 6.67505 29.7789 6.58955C29.8582 6.67074 37.3817 12.8995 37.3817 12.8995C37.4291 13.2811 37.434 13.6677 37.3947 14.0519C37.1557 16.3733 37.1621 18.7948 37.4138 21.4552L37.6836 24.2935C37.7589 25.07 37.1711 25.7649 36.3902 25.8151C35.6267 25.8708 34.9564 25.2492 34.9033 24.4645L34.3051 20.9563C34.2134 20.372 33.4407 20.166 33.07 20.6265L28.7221 25.8863C28.7129 25.0457 28.2606 24.2459 27.5469 23.8013L29.365 21.6023C29.6125 21.303 29.5704 20.8598 29.2712 20.6123C28.972 20.3649 28.5288 20.4067 28.2812 20.7061L27.2491 21.9544C27.1805 21.1631 26.7105 20.4205 26.0163 20.0222L27.2096 18.5787C27.4571 18.2794 27.415 17.8362 27.1157 17.5888C26.8166 17.3414 26.3732 17.3834 26.1258 17.6827L24.4678 19.6882C24.065 19.7306 23.6822 19.8699 23.3481 20.0909C23.1683 19.5748 22.7833 19.091 22.3054 18.7979L24.6632 15.9473C24.9107 15.6481 24.8687 15.2048 24.5696 14.9573C24.2704 14.7097 23.8272 14.7517 23.5796 15.0509L20.7892 18.4245C19.8436 18.4819 19.2731 19.0235 18.6747 19.6941C18.5847 19.6533 18.4997 19.6008 18.4222 19.5369C18.1925 19.347 18.0504 19.0787 18.0222 18.7816C17.9941 18.4846 18.0831 18.1944 18.2732 17.9646L22.642 12.6818C22.8895 12.3826 22.8475 11.9394 22.5482 11.6919C22.2491 11.4443 21.8058 11.4863 21.5583 11.7856L17.1894 17.0685C16.3029 18.1406 16.4538 19.7341 17.5265 20.6211C17.576 20.6618 17.6278 20.699 17.6798 20.7356L13.1395 25.4893C13.1395 25.4893 13.091 23.3742 13.091 23.374C13.0498 21.5782 11.2883 20.2133 9.5384 20.7008C8.32077 21.0399 7.46829 22.1981 7.49726 23.4597L7.5627 26.3132C7.62176 28.8885 7.46182 31.2139 7.0736 33.4217C7.05429 33.5311 7.03844 33.6411 7.02494 33.7514C6.59238 33.5522 6.11706 33.452 5.62787 33.4631C4.78167 33.4825 3.99369 33.8303 3.40906 34.4424L2.32455 35.5784C1.11779 36.8419 1.16392 38.8517 2.4274 40.0584L4.03138 41.5905C4.31217 41.8586 4.7572 41.8484 5.02552 41.5677C5.29364 41.2869 5.28352 40.8418 5.00273 40.5736L3.39866 39.0415C3.05825 38.7164 2.86484 38.2781 2.85396 37.8075C2.84309 37.3369 3.01625 36.8901 3.34147 36.5496L4.42635 35.4137C4.75158 35.0733 5.18986 34.8799 5.66049 34.869C6.13046 34.8583 6.57775 35.0313 6.91835 35.3566L14.3151 42.4213C15.0179 43.0926 15.0436 44.2105 14.3723 44.9133L13.2874 46.0491C12.6162 46.752 11.4982 46.7777 10.7955 46.1063L7.28313 42.7517C7.00254 42.4836 6.55741 42.4937 6.289 42.7746C6.02087 43.0554 6.03099 43.5004 6.31178 43.7687L9.82416 47.1233C10.4369 47.7085 11.2249 47.9991 12.0121 47.9991C12.8479 47.9991 13.6828 47.6712 14.3043 47.0205L15.3892 45.8846C16.1402 45.0983 16.4058 44.023 16.1948 43.0319C17.7431 42.8857 19.1928 42.1916 20.2838 41.0481L23.3666 37.8196L24.4491 38.1815C26.8928 38.9977 29.0271 39.9354 30.9736 41.0482C31.0702 41.1034 31.1684 41.1555 31.2676 41.2055C30.3472 42.1443 30.0733 43.6007 30.6925 44.8411L31.3938 46.2466C31.9481 47.3569 33.0704 48 34.2348 47.9999C34.7096 47.9999 35.1916 47.8928 35.6446 47.6669L37.6293 46.6759C37.9767 46.5024 38.1177 46.0802 37.9442 45.7327C37.7706 45.3852 37.3485 45.2441 37.001 45.4178L35.0165 46.4087C34.147 46.8422 33.086 46.4881 32.6519 45.6185L31.9507 44.2131C31.5166 43.3438 31.8708 42.283 32.7397 41.8488L41.891 37.2807C42.012 37.2204 42.1408 37.1733 42.2696 37.1417C43.0704 36.95 43.8873 37.3314 44.2561 38.0692L44.9576 39.4761C45.1679 39.8969 45.2015 40.3747 45.0524 40.8212C44.9032 41.2677 44.5893 41.6292 44.1682 41.8393L39.8228 44.0087C39.4753 44.1822 39.3342 44.6044 39.5078 44.9519C39.6811 45.2993 40.1035 45.4402 40.4509 45.2669L44.7962 43.0976C45.5534 42.7199 46.1181 42.0696 46.3863 41.2667C46.6544 40.4638 46.5941 39.6046 46.216 38.848ZM19.2666 40.0772C18.2856 41.1054 16.9353 41.6706 15.5212 41.6547C15.4482 41.5681 15.3702 41.4844 15.2865 41.4044L8.38911 34.8165C8.36914 34.4305 8.39192 34.0447 8.45886 33.666C8.8633 31.3654 9.03018 28.9498 8.96887 26.2812L8.90343 23.4276C8.89471 23.0486 9.03618 22.6909 9.30178 22.4205C9.56522 22.1524 9.91725 22.0049 10.2948 22.0049H10.302C11.0471 22.0077 11.6677 22.6364 11.6854 23.4063L11.7641 26.8442C11.772 27.1872 12.0245 27.4665 12.3508 27.5209C12.4673 27.597 12.6008 27.635 12.7343 27.635C12.9196 27.635 13.1047 27.5622 13.2429 27.4176L20.1654 20.1697C21.2161 19.134 22.7693 20.6131 21.7807 21.7124L17.7316 25.9519C17.4634 26.2327 17.4736 26.6777 17.7545 26.9461C18.035 27.2142 18.4802 27.204 18.7486 26.9232L23.9308 21.4224C24.9831 20.3879 26.5334 21.868 25.5455 22.9654L19.6016 29.1888C19.3335 29.4696 19.3436 29.9147 19.6245 30.1829C19.7606 30.313 19.9355 30.3775 20.11 30.3775C20.2955 30.3775 20.4804 30.3047 20.6186 30.16L25.3918 25.1621C26.4416 24.1242 27.9961 25.6059 27.0072 26.7043L21.2931 32.6866C21.0249 32.9673 21.035 33.4124 21.3158 33.6808C21.5965 33.949 22.0416 33.9389 22.3099 33.6581L26.1966 29.5895C26.6042 29.1451 27.3476 29.1321 27.775 29.5527C28.2201 29.9782 28.2365 30.6864 27.8117 31.1314L19.2666 40.0772ZM32.7298 40.2822C32.361 40.1706 32.006 40.0186 31.6716 39.8274C29.6438 38.6682 27.4271 37.6935 24.8949 36.8478L24.4399 36.6957L28.8282 32.1024C29.7883 31.0969 29.7518 29.497 28.7451 28.5346C28.6725 28.4656 28.5955 28.4021 28.516 28.3426L30.3686 26.1015L31.2296 27.8264C31.3526 28.073 31.6012 28.2156 31.8593 28.2156C31.9647 28.2156 32.072 28.1917 32.1728 28.1415C32.5202 27.9679 32.6613 27.5458 32.4879 27.1983L31.3486 24.9159L33.1765 22.7047L33.5128 24.6769C33.6639 26.119 34.8905 27.2245 36.3014 27.2245C37.1876 27.2278 38.013 26.7903 38.516 26.1278L41.3616 31.8281C41.9971 33.0986 42.0718 34.5609 41.5789 35.8861C41.4716 35.926 41.3662 35.9711 41.2638 36.0221L32.7298 40.2822Z" fill="#14B9FF"/>
</g>
<defs>
<clipPath id="clip0_5003_36">
<rect width="48" height="48" fill="white"/>
</clipPath>
</defs>
</svg>
