<svg width="48" height="48" viewBox="0 0 48 48" fill="none" xmlns="http://www.w3.org/2000/svg">
<g clip-path="url(#clip0_5003_30)">
<path d="M47.9998 8.23166C47.9998 8.22641 47.9991 8.22116 47.999 8.21582C47.9984 8.19491 47.9972 8.17429 47.9947 8.15385C47.9938 8.14635 47.9924 8.13885 47.9913 8.13135C47.9884 8.11251 47.985 8.09394 47.9807 8.07576C47.979 8.06854 47.9771 8.06141 47.9751 8.05419C47.9697 8.03441 47.9635 8.01501 47.9564 7.99588C47.9551 7.99223 47.9542 7.98848 47.9528 7.98491L46.0455 3.10223C45.8532 2.61024 45.3876 2.29224 44.8593 2.29224H41.3864C41.0078 2.29224 40.701 2.59908 40.701 2.97764C40.701 3.3562 41.0078 3.66305 41.3864 3.66305H44.7929L46.3108 7.54888H31.9601L31.061 3.66305H36.3609C36.7395 3.66305 37.0463 3.3562 37.0463 2.97764C37.0463 2.59908 36.7395 2.29224 36.3609 2.29224H30.1989H23.2926H8.63209C8.10371 2.29224 7.63815 2.61024 7.44587 3.10242L5.53853 7.98491C5.53712 7.98857 5.53637 7.99232 5.53497 7.99588C5.52784 8.01491 5.52166 8.03432 5.51622 8.05419C5.51425 8.06141 5.51237 8.06854 5.51069 8.07576C5.50637 8.09404 5.50291 8.1126 5.50009 8.13135C5.49897 8.13885 5.49756 8.14635 5.49662 8.15385C5.49428 8.17429 5.49297 8.19491 5.49241 8.21582C5.49231 8.22107 5.49166 8.22632 5.49156 8.23166C5.49156 8.23251 5.49147 8.23335 5.49147 8.23419V18.3039C5.49147 18.6824 5.79831 18.9893 6.17687 18.9893C6.55543 18.9893 6.86228 18.6824 6.86228 18.3039V8.91969H21.3909V19.3379C21.3909 19.7454 21.6309 20.1166 22.0024 20.2838C22.1384 20.345 22.2833 20.3749 22.4272 20.3749C22.6762 20.3749 22.9225 20.2855 23.1156 20.1143L26.7457 16.8983L30.3758 20.1142C30.6805 20.3845 31.1176 20.4509 31.4891 20.2838C31.8606 20.1165 32.1006 19.7454 32.1006 19.3379V8.91969H46.6291V39.6624C46.6291 40.1542 46.2289 40.5544 45.737 40.5544H33.1696C33.1696 40.5467 33.1687 40.5389 33.1686 40.5311C33.1678 40.4696 33.1656 40.4082 33.1603 40.3473C34.3404 40.6601 35.6012 40.0536 36.0741 38.8939C36.3228 38.2839 36.3191 37.6136 36.0637 37.0065C36.0396 36.9493 36.013 36.8938 35.9851 36.8391C35.9799 36.8291 35.975 36.819 35.9698 36.809C35.9423 36.7569 35.9131 36.706 35.8823 36.6564C35.8763 36.6468 35.8701 36.6374 35.864 36.6278C35.8313 36.5769 35.7975 36.527 35.7614 36.4789C35.7608 36.4779 35.76 36.4771 35.7593 36.4762C35.7235 36.4287 35.6857 36.3829 35.6466 36.3382C35.6394 36.3301 35.6324 36.3218 35.6252 36.3137C35.5865 36.2705 35.5463 36.2288 35.5046 36.1886C35.4965 36.1807 35.4882 36.1731 35.48 36.1655C35.4364 36.1245 35.3918 36.0846 35.3453 36.047C35.3437 36.0458 35.3421 36.0446 35.3405 36.0434C35.2947 36.0065 35.2472 35.9717 35.1987 35.9381C35.19 35.932 35.1814 35.9258 35.1725 35.9198C35.124 35.8872 35.0743 35.8564 35.0233 35.827C35.0191 35.8246 35.0153 35.8218 35.0109 35.8193C35.3006 35.5686 35.5293 35.2514 35.6782 34.8863C35.9269 34.2763 35.9232 33.606 35.6678 32.9988C35.4443 32.4675 35.0513 32.0402 34.5481 31.7751C34.4762 31.7372 34.402 31.7026 34.3258 31.6716L23.6583 27.3218L28.6239 25.7849C29.8052 25.4192 30.4705 24.1592 30.107 22.9764C29.9713 22.5348 29.7024 22.1624 29.3549 21.8903C28.8379 21.4852 28.1469 21.3023 27.4616 21.4462C27.4583 21.4469 27.4551 21.4475 27.4518 21.4483C27.4138 21.4569 23.6072 22.3128 19.6316 23.088C19.4552 23.1224 19.2834 23.1556 19.114 23.1882C18.9784 23.2143 18.8447 23.24 18.7136 23.2649C18.6759 23.2721 18.6381 23.2793 18.6007 23.2864C18.3691 23.3304 18.1448 23.3724 17.9267 23.4129C17.839 23.4293 17.752 23.4454 17.6664 23.4611C12.6735 24.3809 11.271 24.3974 10.8817 24.3447C10.8802 24.3445 10.8789 24.3444 10.8774 24.3441C10.8715 24.3432 10.8657 24.3424 10.8602 24.3415C10.8563 24.3409 10.8526 24.3402 10.849 24.3397C10.8464 24.3392 10.8436 24.3387 10.841 24.3384C10.8167 24.3339 10.7978 24.3294 10.7832 24.3249L10.6709 24.2792L10.8108 23.936C10.9485 23.5985 10.9464 23.2276 10.8051 22.8917C10.7698 22.8077 10.7267 22.7284 10.6769 22.6545C10.5272 22.433 10.3156 22.2605 10.0625 22.1573L6.38115 20.6562C6.04375 20.5185 5.67278 20.5207 5.33687 20.662C5.00087 20.8032 4.74016 21.067 4.60253 21.4044L0.100947 32.4446C-0.183115 33.1413 0.152603 33.9391 0.849258 34.2232L4.53072 35.7244C4.69881 35.7929 4.87272 35.8253 5.044 35.8253C5.58241 35.8253 6.09372 35.5045 6.30925 34.976L6.34309 34.8931L7.1919 35.2391C7.19237 35.2393 7.19284 35.2396 7.1934 35.2398C8.00528 35.5708 8.75331 36.0431 9.40074 36.6292C9.51849 36.7358 9.63287 36.8462 9.74377 36.9601C9.85468 37.074 9.96193 37.1915 10.0655 37.3125C10.1173 37.3729 10.1682 37.4344 10.218 37.4965C11.1614 38.6729 12.3981 39.5957 13.7943 40.165L14.7493 40.5543H7.7544C7.26259 40.5543 6.86237 40.1541 6.86237 39.6623V37.928C6.86237 37.5495 6.55553 37.2426 6.17697 37.2426C5.7984 37.2426 5.49156 37.5495 5.49156 37.928V39.6623C5.49156 40.91 6.50659 41.9252 7.7544 41.9252H18.1112L26.9407 45.5253C27.2446 45.6493 27.5591 45.7081 27.8687 45.708C28.8417 45.708 29.7659 45.1281 30.1555 44.1729C30.3152 43.7811 30.3665 43.3716 30.3235 42.978C30.7827 43.0439 31.2589 42.9834 31.6905 42.797C32.1292 42.6076 32.4927 42.3058 32.7509 41.9251H45.7371C46.9849 41.9251 48 40.91 48 39.6622V8.23429C47.9999 8.23335 47.9998 8.2326 47.9998 8.23166ZM23.8375 3.66305H29.6539L30.553 7.54888H22.9383L23.8375 3.66305ZM21.5313 7.54888H7.18056L8.69846 3.66305H22.4305L21.5313 7.54888ZM30.7299 18.5965L27.4334 15.6761C27.2374 15.5025 26.9916 15.4157 26.7459 15.4157C26.5001 15.4157 26.2541 15.5025 26.0581 15.6761L22.7618 18.5965V8.91969H30.7299V18.5965ZM5.04231 34.4525L1.37266 32.9563L5.86947 21.928L9.53912 23.4244L5.04231 34.4525ZM32.4252 38.5889L31.6386 38.2681C31.6382 38.2679 31.6378 38.2678 31.6375 38.2676C31.6372 38.2675 31.6369 38.2673 31.6366 38.2672C31.6365 38.2672 31.6364 38.2671 31.6363 38.2671L23.4439 34.9267C23.0935 34.7839 22.6934 34.952 22.5505 35.3027C22.4075 35.6532 22.5758 36.0532 22.9264 36.1962L31.119 39.5367C31.1532 39.5507 31.1863 39.5661 31.2183 39.5831C31.2273 39.5879 31.2356 39.5937 31.2444 39.5987C31.267 39.6114 31.2895 39.6242 31.3108 39.6383C31.321 39.6452 31.3304 39.653 31.3404 39.6602C31.3592 39.6737 31.3784 39.687 31.3962 39.7016C31.407 39.7104 31.4168 39.7203 31.4272 39.7294C31.4431 39.7436 31.4594 39.7573 31.4744 39.7723C31.4848 39.7826 31.4941 39.7939 31.504 39.8046C31.5178 39.8194 31.532 39.834 31.5449 39.8495C31.5548 39.8614 31.5634 39.8741 31.5728 39.8864C31.5845 39.9018 31.5967 39.9169 31.6075 39.9328C31.6165 39.9461 31.6243 39.9602 31.6328 39.9738C31.6425 39.9895 31.6528 40.005 31.6617 40.0212C31.6698 40.0358 31.6765 40.0511 31.684 40.066C31.6918 40.082 31.7004 40.0978 31.7075 40.1142C31.7143 40.1299 31.7199 40.1463 31.726 40.1623C31.7321 40.1785 31.7389 40.1944 31.7443 40.2109C31.7498 40.2275 31.7539 40.2445 31.7585 40.2613C31.7631 40.2779 31.7682 40.2942 31.7721 40.311C31.7759 40.3279 31.7784 40.3452 31.7814 40.3623C31.7845 40.3793 31.7881 40.3962 31.7904 40.4134C31.7926 40.4307 31.7934 40.4481 31.7949 40.4655C31.7963 40.4829 31.7983 40.5003 31.7989 40.5177C31.7994 40.5349 31.7986 40.5522 31.7984 40.5694C31.7982 40.5873 31.7985 40.6051 31.7974 40.623C31.7964 40.6399 31.7938 40.6569 31.7919 40.6739C31.79 40.6922 31.7885 40.7104 31.7855 40.7286C31.7828 40.7453 31.7785 40.7619 31.7751 40.7786C31.7711 40.7971 31.7679 40.8155 31.7629 40.8339C31.7586 40.8501 31.7528 40.8663 31.7476 40.8824C31.7418 40.9008 31.7365 40.9191 31.7296 40.9372C31.7238 40.9497 31.7181 40.9623 31.7127 40.9749C31.7115 40.9778 31.7109 40.9808 31.7097 40.9836C31.6027 41.2308 31.405 41.4273 31.1469 41.5387C30.8629 41.6613 30.5377 41.6656 30.2545 41.5501L28.803 40.9582C28.7963 40.9555 28.7894 40.9536 28.7827 40.9511C28.7758 40.948 28.7694 40.9444 28.7624 40.9416L22.0991 38.2247C21.7483 38.0818 21.3485 38.25 21.2056 38.6006C21.0627 38.9511 21.2309 39.3512 21.5815 39.4941L28.2448 42.2111C28.252 42.214 28.2592 42.2161 28.2664 42.2187C28.2729 42.2215 28.2789 42.225 28.2855 42.2276C28.8447 42.4557 29.1143 43.0962 28.8863 43.6554C28.6582 44.2148 28.018 44.4844 27.4585 44.2562L18.5058 40.6057C18.5054 40.6055 18.5051 40.6054 18.5047 40.6052L14.3122 38.8956C13.5742 38.5947 12.8889 38.177 12.2839 37.6632C11.9209 37.3549 11.5869 37.012 11.2876 36.6389C10.9928 36.2713 10.6694 35.9285 10.3214 35.6134C9.55571 34.9203 8.67118 34.3618 7.71128 33.9703C7.71118 33.9703 7.71109 33.9702 7.71099 33.9702L6.86106 33.6237L8.5539 29.472L10.1536 25.5487L10.2717 25.5968C10.3828 25.642 10.5412 25.7063 10.9676 25.7225C11.5003 25.7466 12.3815 25.691 13.9603 25.4679C15.0342 25.3163 16.3514 25.0969 17.8892 24.8139C17.9271 24.807 17.9647 24.8001 18.0029 24.793C18.0749 24.7797 18.1475 24.7662 18.2204 24.7527C18.2772 24.7422 18.3342 24.7315 18.3916 24.7208C18.4571 24.7085 18.5228 24.6962 18.589 24.6837C18.6592 24.6705 18.7303 24.6571 18.8017 24.6435C18.8589 24.6326 18.916 24.6218 18.9737 24.6109C19.0608 24.5943 19.1494 24.5773 19.2383 24.5603C19.284 24.5514 19.3293 24.5428 19.3754 24.534C19.5116 24.5078 19.6495 24.4811 19.7899 24.4539C23.7519 23.6832 27.5759 22.8255 27.7478 22.7869C27.7649 22.7833 27.7821 22.7813 27.7992 22.7787C28.2395 22.7136 28.6708 22.9682 28.7971 23.379C28.8415 23.5234 28.8466 23.6707 28.8187 23.8092C28.7573 24.1142 28.5356 24.3774 28.2189 24.4753L21.4237 26.5785C21.147 26.6642 20.9541 26.9142 20.9416 27.2035C20.9291 27.4927 21.0995 27.7587 21.3676 27.868L33.8086 32.9409C34.0795 33.0514 34.2912 33.2607 34.4047 33.5304C34.5181 33.8001 34.5198 34.0979 34.4093 34.3687C34.2987 34.6397 34.0895 34.8514 33.8198 34.9648C33.6849 35.0214 33.5431 35.0501 33.4011 35.051C33.399 35.051 33.3969 35.0507 33.3949 35.0507C33.3615 35.0507 33.3282 35.0494 33.2949 35.0463C33.2851 35.0453 33.2754 35.0433 33.2655 35.0421C33.2401 35.039 33.2147 35.0361 33.1895 35.0313C33.1735 35.0282 33.1578 35.0235 33.1419 35.0197C33.123 35.0152 33.104 35.0114 33.0852 35.0059C33.0658 35.0001 33.0468 34.9925 33.0277 34.9857C33.0125 34.9803 32.997 34.9758 32.982 34.9697L24.7887 31.6288C24.4381 31.4858 24.0382 31.6541 23.8952 32.0047C23.7522 32.3553 23.9205 32.7553 24.2712 32.8983L34.2044 36.9485C34.2722 36.9761 34.3362 37.0099 34.3959 37.0493C34.5751 37.1674 34.7154 37.3357 34.8005 37.538C34.8998 37.774 34.9134 38.0314 34.8413 38.2736C34.8309 38.3082 34.8189 38.3425 34.8051 38.3764C34.7908 38.4113 34.775 38.4452 34.7576 38.4778C34.7172 38.5537 34.668 38.6224 34.6131 38.6849C34.5789 38.7237 34.5425 38.7599 34.5037 38.7931C34.4975 38.7983 34.4918 38.8043 34.4856 38.8094C34.2354 39.0139 33.901 39.1019 33.5743 39.0359C33.508 39.0225 33.4421 39.0034 33.3773 38.977L32.4252 38.5889Z" fill="#14B9FF"/>
</g>
<defs>
<clipPath id="clip0_5003_30">
<rect width="48" height="48" fill="white"/>
</clipPath>
</defs>
</svg>
