<svg width="48" height="48" viewBox="0 0 48 48" fill="none" xmlns="http://www.w3.org/2000/svg">
<path d="M44.0769 5H37.9231C37.6783 5 37.4435 5.10941 37.2704 5.30416C37.0973 5.49891 37 5.76304 37 6.03846C37 6.31388 37.0973 6.57802 37.2704 6.77276C37.4435 6.96751 37.6783 7.07692 37.9231 7.07692H43.1538V12.9615C43.1538 13.237 43.2511 13.5011 43.4242 13.6958C43.5973 13.8906 43.8321 14 44.0769 14C44.3217 14 44.5565 13.8906 44.7296 13.6958C44.9027 13.5011 45 13.237 45 12.9615V6.03846C45 5.76304 44.9027 5.49891 44.7296 5.30416C44.5565 5.10941 44.3217 5 44.0769 5Z" fill="#14B9FF"/>
<path d="M3.03846 14C3.31388 14 3.57802 13.8906 3.77276 13.6958C3.96751 13.5011 4.07692 13.237 4.07692 12.9615V7.07692H9.96154C10.237 7.07692 10.5011 6.96751 10.6958 6.77276C10.8906 6.57802 11 6.31388 11 6.03846C11 5.76304 10.8906 5.49891 10.6958 5.30416C10.5011 5.10941 10.237 5 9.96154 5H3.03846C2.76304 5 2.49891 5.10941 2.30416 5.30416C2.10941 5.49891 2 5.76304 2 6.03846V12.9615C2 13.237 2.10941 13.5011 2.30416 13.6958C2.49891 13.8906 2.76304 14 3.03846 14Z" fill="#14B9FF"/>
<path d="M44.0769 34C43.8321 34 43.5973 34.1094 43.4242 34.3042C43.2511 34.4989 43.1538 34.763 43.1538 35.0385V40.9231H37.9231C37.6783 40.9231 37.4435 41.0325 37.2704 41.2272C37.0973 41.422 37 41.6861 37 41.9615C37 42.237 37.0973 42.5011 37.2704 42.6958C37.4435 42.8906 37.6783 43 37.9231 43H44.0769C44.3217 43 44.5565 42.8906 44.7296 42.6958C44.9027 42.5011 45 42.237 45 41.9615V35.0385C45 34.763 44.9027 34.4989 44.7296 34.3042C44.5565 34.1094 44.3217 34 44.0769 34Z" fill="#14B9FF"/>
<path d="M9.96154 40.9231H4.07692V35.0385C4.07692 34.763 3.96751 34.4989 3.77276 34.3042C3.57802 34.1094 3.31388 34 3.03846 34C2.76304 34 2.49891 34.1094 2.30416 34.3042C2.10941 34.4989 2 34.763 2 35.0385V41.9615C2 42.237 2.10941 42.5011 2.30416 42.6958C2.49891 42.8906 2.76304 43 3.03846 43H9.96154C10.237 43 10.5011 42.8906 10.6958 42.6958C10.8906 42.5011 11 42.237 11 41.9615C11 41.6861 10.8906 41.422 10.6958 41.2272C10.5011 41.0325 10.237 40.9231 9.96154 40.9231Z" fill="#14B9FF"/>
<path d="M43.8012 25.102C43.9303 24.9277 44 24.7167 44 24.5C44 24.2833 43.9303 24.0723 43.8012 23.898C43.4418 23.4128 34.8724 12 24 12C13.1276 12 4.55817 23.4128 4.19885 23.898C4.06969 24.0723 4 24.2833 4 24.5C4 24.7167 4.06969 24.9277 4.19885 25.102C4.55817 25.5872 13.1276 37 24 37C34.8724 37 43.4418 25.5872 43.8012 25.102ZM24 34.973C15.5106 34.973 8.20762 26.8088 6.31205 24.5C8.20355 22.1885 15.4964 14.027 24 14.027C32.4894 14.027 39.7924 22.1912 41.688 24.5C39.7965 26.8115 32.5036 34.973 24 34.973Z" fill="#14B9FF"/>
<path d="M24 16C22.4178 16 20.871 16.4692 19.5554 17.3482C18.2398 18.2273 17.2145 19.4767 16.609 20.9385C16.0035 22.4003 15.845 24.0089 16.1537 25.5607C16.4624 27.1126 17.2243 28.538 18.3431 29.6569C19.462 30.7757 20.8874 31.5376 22.4393 31.8463C23.9911 32.155 25.5997 31.9965 27.0615 31.391C28.5233 30.7855 29.7727 29.7602 30.6518 28.4446C31.5308 27.129 32 25.5822 32 24C31.9976 21.879 31.154 19.8456 29.6542 18.3458C28.1544 16.846 26.121 16.0024 24 16ZM24 29.913C22.8305 29.913 21.6873 29.5662 20.7149 28.9165C19.7425 28.2668 18.9846 27.3433 18.5371 26.2628C18.0895 25.1824 17.9724 23.9934 18.2006 22.8464C18.4287 21.6994 18.9919 20.6458 19.8188 19.8188C20.6458 18.9919 21.6994 18.4287 22.8464 18.2006C23.9934 17.9724 25.1824 18.0895 26.2628 18.5371C27.3433 18.9846 28.2668 19.7425 28.9165 20.7149C29.5663 21.6873 29.913 22.8305 29.913 24C29.9112 25.5677 29.2876 27.0706 28.1791 28.1791C27.0706 29.2876 25.5677 29.9112 24 29.913Z" fill="#14B9FF"/>
</svg>
