<svg width="48" height="48" viewBox="0 0 48 48" fill="none" xmlns="http://www.w3.org/2000/svg">
<g clip-path="url(#clip0_5003_108)">
<path d="M45.4688 29.1304H45.3727V27.0038C45.3428 25.3403 45.4507 21.3158 45.2917 19.5788C44.8238 14.0899 42.2544 8.99373 38.1196 5.35362C33.9849 1.71351 28.6042 -0.189355 23.1003 0.0420789C17.5964 0.273513 12.3944 2.62136 8.57984 6.59574C4.76526 10.5701 2.63275 15.864 2.62725 21.3728V23.3453H2.53125C1.85992 23.3453 1.21609 23.612 0.741386 24.0867C0.266685 24.5614 0 25.2052 0 25.8765C0 26.5478 0.266685 27.1917 0.741386 27.6664C1.21609 28.1411 1.85992 28.4078 2.53125 28.4078H22.5495V40.3838H22.125C21.951 40.3838 21.784 40.4529 21.661 40.576C21.5379 40.6991 21.4688 40.866 21.4688 41.04V44.2744C21.4687 44.3606 21.4856 44.4459 21.5186 44.5256C21.5516 44.6052 21.5999 44.6776 21.6609 44.7385C21.7218 44.7995 21.7942 44.8478 21.8738 44.8808C21.9534 44.9138 22.0388 44.9307 22.125 44.9306H22.5495V47.3438C22.5494 47.43 22.5664 47.5153 22.5994 47.595C22.6323 47.6746 22.6807 47.747 22.7416 47.8079C22.8025 47.8689 22.8749 47.9172 22.9546 47.9502C23.0342 47.9831 23.1196 48.0001 23.2057 48H27.1875C27.2737 48.0001 27.3591 47.9831 27.4387 47.9502C27.5183 47.9172 27.5907 47.8689 27.6516 47.8079C27.7126 47.747 27.7609 47.6746 27.7939 47.595C27.8269 47.5153 27.8438 47.43 27.8438 47.3438V44.9306H28.2683C28.3544 44.9307 28.4398 44.9138 28.5194 44.8808C28.5991 44.8478 28.6714 44.7995 28.7324 44.7385C28.7933 44.6776 28.8417 44.6052 28.8746 44.5256C28.9076 44.4459 28.9246 44.3606 28.9245 44.2744V41.04C28.9245 40.866 28.8554 40.6991 28.7323 40.576C28.6092 40.4529 28.4423 40.3838 28.2683 40.3838H27.8438V33.4838L28.3357 33.9919C28.397 34.055 28.4702 34.1052 28.5512 34.1396C28.6322 34.1739 28.7192 34.1917 28.8071 34.1918H45.4688C46.1401 34.1918 46.7839 33.9251 47.2586 33.4504C47.7333 32.9757 48 32.3318 48 31.6605C48 30.9892 47.7333 30.3454 47.2586 29.8707C46.7839 29.396 46.1401 29.1293 45.4688 29.1293V29.1304ZM44.04 20.5751C44.0756 20.8639 44.0554 25.9725 44.0602 26.3475H34.2285C33.9171 26.342 33.6204 26.2144 33.4021 25.9923C33.1839 25.7701 33.0616 25.4711 33.0616 25.1597C33.0616 24.8483 33.1839 24.5493 33.4021 24.3272C33.6204 24.105 33.9171 23.9774 34.2285 23.9719H34.9125C35.5735 23.9711 36.2073 23.7082 36.6747 23.2407C37.1421 22.7733 37.4051 22.1396 37.4059 21.4785C37.4062 21.1655 37.5306 20.8654 37.752 20.6441C37.9733 20.4228 38.2734 20.2983 38.5864 20.298H44.0261C44.0332 20.3929 44.0359 20.4829 44.04 20.5751ZM26.8594 2.91452V2.27139C26.8591 2.13808 26.8872 2.00624 26.9419 1.88467C26.9967 1.7631 27.0767 1.65459 27.1766 1.56639C31.3061 2.24735 35.1238 4.18896 38.1064 7.12502H22.1932C21.9421 7.12143 21.7025 7.01948 21.5257 6.84108C21.349 6.66267 21.2493 6.42205 21.2481 6.17093C21.2468 5.9198 21.3442 5.67822 21.5192 5.4981C21.6942 5.31797 21.9328 5.21368 22.1839 5.20764L24.6097 5.18439C25.2076 5.17692 25.7785 4.93473 26.1993 4.51009C26.6202 4.08545 26.8573 3.51238 26.8594 2.91452ZM4.0875 18.975C4.36558 16.6766 5.03941 14.4436 6.07913 12.375C6.89436 10.7625 7.92035 9.26551 9.13013 7.92339H11.1094C11.4575 7.92339 11.7913 8.06167 12.0375 8.30782C12.2836 8.55396 12.4219 8.8878 12.4219 9.23589C12.4228 9.93181 12.6996 10.599 13.1917 11.0911C13.6838 11.5832 14.351 11.86 15.0469 11.8609H19.4531C19.8012 11.8609 20.1351 11.9992 20.3812 12.2453C20.6273 12.4915 20.7656 12.8253 20.7656 13.1734V13.6421C20.7656 13.9902 20.6273 14.3241 20.3812 14.5702C20.1351 14.8164 19.8012 14.9546 19.4531 14.9546H18.1406C17.4447 14.9555 16.7775 15.2324 16.2855 15.7245C15.7934 16.2166 15.5165 16.8837 15.5156 17.5796V17.6734C15.5156 18.0215 15.3773 18.3553 15.1312 18.6015C14.8851 18.8476 14.5512 18.9859 14.2031 18.9859H4.0875V18.975ZM3.9375 21.375C3.9375 21.0143 3.948 20.6561 3.96713 20.3003H14.2009C14.8968 20.2994 15.564 20.0225 16.056 19.5304C16.5481 19.0383 16.825 18.3712 16.8259 17.6753V17.5815C16.8259 17.2334 16.9642 16.8996 17.2103 16.6534C17.4564 16.4073 17.7903 16.269 18.1384 16.269H19.4509C20.1468 16.2681 20.814 15.9913 21.306 15.4992C21.7981 15.0071 22.075 14.3399 22.0759 13.644V13.1753C22.075 12.4793 21.7981 11.8122 21.306 11.3201C20.814 10.828 20.1468 10.5512 19.4509 10.5503H15.0469C14.6988 10.5503 14.3649 10.412 14.1188 10.1658C13.8727 9.9197 13.7344 9.58587 13.7344 9.23777C13.7335 8.54185 13.4566 7.87469 12.9645 7.3826C12.4725 6.89051 11.8053 6.61366 11.1094 6.61277H10.4344C14.1285 3.20237 18.9724 1.3098 24 1.31252C24.5828 1.31252 25.158 1.34289 25.7284 1.39202C25.6091 1.66987 25.5473 1.96902 25.5469 2.27139V2.91452C25.5461 3.16694 25.4461 3.40893 25.2685 3.58826C25.0908 3.76759 24.8498 3.86987 24.5974 3.87302L22.1715 3.89627C21.5793 3.91406 21.0175 4.16255 20.6059 4.58872C20.1943 5.0149 19.9655 5.58503 19.9684 6.1775C19.9712 6.76997 20.2054 7.33788 20.6211 7.76009C21.0367 8.1823 21.6009 8.4254 22.1932 8.43752H39.3169C41.8502 11.4266 43.4484 15.0949 43.9125 18.9855H38.5875C37.9265 18.9862 37.2928 19.2491 36.8255 19.7165C36.3581 20.1838 36.0952 20.8175 36.0945 21.4785C36.0942 21.7918 35.9695 22.0922 35.7479 22.3136C35.5263 22.535 35.2258 22.6594 34.9125 22.6594H34.2285C33.5707 22.6674 32.9425 22.9344 32.4802 23.4024C32.0179 23.8705 31.7586 24.5018 31.7586 25.1597C31.7586 25.8176 32.0179 26.4489 32.4802 26.917C32.9425 27.385 33.5707 27.652 34.2285 27.66H44.0602V29.1304H30.675L25.2656 23.5448C25.2044 23.4816 25.1312 23.4314 25.0502 23.3971C24.9692 23.3629 24.8822 23.3452 24.7942 23.3453H3.93975L3.9375 21.375ZM27.6097 41.7V43.6219H22.7812V41.6963H27.612L27.6097 41.7ZM26.5312 46.6875H23.862V44.9306H26.5312V46.6875ZM26.5312 40.3838H23.862V29.3726L25.05 30.6L26.5312 32.1296V40.3838ZM45.4688 32.8804H29.085L27.66 31.4078L23.6771 27.2948C23.5852 27.2053 23.471 27.142 23.3464 27.1114C23.3002 27.1011 23.2531 27.0957 23.2057 27.0953H2.53125C2.20802 27.0953 1.89802 26.9669 1.66946 26.7383C1.4409 26.5097 1.3125 26.1998 1.3125 25.8765C1.3125 25.5533 1.4409 25.2433 1.66946 25.0147C1.89802 24.7862 2.20802 24.6578 2.53125 24.6578H24.5164L29.925 30.243C29.9862 30.3062 30.0594 30.3565 30.1404 30.3908C30.2214 30.4252 30.3084 30.4429 30.3964 30.4429H45.4688C45.792 30.4429 46.102 30.5713 46.3305 30.7999C46.5591 31.0284 46.6875 31.3384 46.6875 31.6616C46.6875 31.9849 46.5591 32.2949 46.3305 32.5234C46.102 32.752 45.792 32.8804 45.4688 32.8804Z" fill="#14B9FF"/>
<path d="M27.8906 21.048C28.4871 21.0473 29.059 20.81 29.4808 20.3882C29.9027 19.9664 30.1399 19.3945 30.1406 18.798V18.2824C30.1406 18.0337 30.2394 17.7953 30.4152 17.6195C30.591 17.4436 30.8295 17.3449 31.0781 17.3449H33.4219C34.0184 17.3442 34.5903 17.1069 35.0121 16.6851C35.4339 16.2633 35.6712 15.6914 35.6719 15.0949V13.5C35.6713 12.9034 35.434 12.3315 35.0122 11.9097C34.5904 11.4878 34.0184 11.2506 33.4219 11.25H28.4531C27.8566 11.2506 27.2846 11.4878 26.8628 11.9097C26.441 12.3315 26.2037 12.9034 26.2031 13.5V15.1875C26.2031 15.4361 26.1044 15.6746 25.9285 15.8504C25.7527 16.0262 25.5143 16.125 25.2656 16.125C24.6691 16.1256 24.0971 16.3628 23.6753 16.7847C23.2535 17.2065 23.0162 17.7784 23.0156 18.375V18.7969C23.0163 19.3934 23.2536 19.9653 23.6754 20.3871C24.0972 20.8089 24.6691 21.0462 25.2656 21.0469L27.8906 21.048ZM24.3281 18.798V18.375C24.3281 18.1264 24.4269 17.8879 24.6027 17.7121C24.7785 17.5363 25.017 17.4375 25.2656 17.4375C25.8621 17.4368 26.434 17.1995 26.8558 16.7777C27.2777 16.3559 27.5149 15.784 27.5156 15.1875V13.5C27.5156 13.2514 27.6144 13.0129 27.7902 12.8371C27.966 12.6613 28.2045 12.5625 28.4531 12.5625H33.4219C33.6705 12.5625 33.909 12.6613 34.0848 12.8371C34.2606 13.0129 34.3594 13.2514 34.3594 13.5V15.0938C34.3594 15.3424 34.2606 15.5808 34.0848 15.7567C33.909 15.9325 33.6705 16.0312 33.4219 16.0312H31.0781C30.4816 16.0318 29.9096 16.2691 29.4878 16.6909C29.066 17.1127 28.8287 17.6847 28.8281 18.2812V18.7969C28.8281 19.0455 28.7294 19.284 28.5535 19.4598C28.3777 19.6356 28.1393 19.7344 27.8906 19.7344H25.2656C25.0172 19.7344 24.7789 19.6358 24.6031 19.4602C24.4273 19.2846 24.3284 19.0464 24.3281 18.798Z" fill="#14B9FF"/>
</g>
<defs>
<clipPath id="clip0_5003_108">
<rect width="48" height="48" fill="white"/>
</clipPath>
</defs>
</svg>
