<svg width="48" height="48" viewBox="0 0 48 48" fill="none" xmlns="http://www.w3.org/2000/svg">
<g clip-path="url(#clip0_5003_181)">
<path d="M41.7972 13.9206C40.8732 13.4128 39.4657 13.5151 38.5592 14.9402C38.5565 14.9445 38.5538 14.9487 38.5511 14.953L35.181 20.4687C34.775 20.2348 34.3099 20.1307 33.8359 20.1733C33.2421 20.2264 32.7079 20.505 32.3317 20.9578C32.091 21.2475 31.2956 22.2411 30.4536 23.293C29.6552 24.2905 28.8296 25.3218 28.599 25.5993C27.7992 26.562 26.779 27.3022 25.699 28.0859C24.1665 29.1978 22.4906 30.4139 21.4962 32.3973C20.5018 30.4139 18.826 29.1978 17.2935 28.0859C16.2134 27.3022 15.1933 26.5619 14.3935 25.5993C14.1628 25.3217 13.3366 24.2894 12.5374 23.2912C11.6961 22.2402 10.9014 21.2475 10.6608 20.9579C10.2846 20.5051 9.75043 20.2265 9.15668 20.1733C8.68287 20.1308 8.21754 20.2347 7.8116 20.4688L4.44143 14.9531C4.43882 14.9487 4.43614 14.9445 4.43336 14.9403C3.52673 13.5151 2.11925 13.4126 1.19531 13.9207C0.100787 14.5224 -0.307676 15.8655 0.245424 17.0446C0.246684 17.0472 0.247944 17.0498 0.249204 17.0525C0.485227 17.5422 1.05949 18.9126 1.72447 20.4991C2.65546 22.7203 3.81408 25.4847 4.79588 27.6443C6.07469 30.4574 6.64828 31.2479 8.88756 33.2833L11.9084 36.0291V36.2857H11.4171C10.9532 36.2857 10.5772 36.6618 10.5772 37.1256V42.1652C10.5772 42.629 10.9532 43.0052 11.4171 43.0052H31.5757C32.0396 43.0052 32.4156 42.629 32.4156 42.1652V37.1256C32.4156 36.6618 32.0396 36.2857 31.5757 36.2857H31.0844V36.0291L34.1052 33.2833C36.3444 31.2481 36.918 30.4575 38.1969 27.6443C39.1786 25.485 40.337 22.7211 41.2678 20.5002C41.9331 18.9131 42.5075 17.5423 42.7436 17.0524C42.7449 17.0498 42.7461 17.0472 42.7474 17.0445C43.3005 15.8655 42.892 14.5224 41.7972 13.9206ZM13.3133 35.036L10.0175 32.0402C7.95456 30.1652 7.50595 29.5466 6.32516 26.9491C5.35369 24.8122 4.20045 22.0607 3.27383 19.8498C2.57399 18.1802 2.02081 16.8603 1.76479 16.3279C1.52986 15.8232 1.80486 15.5028 2.00485 15.3928C2.34007 15.2086 2.71644 15.3742 3.01252 15.836L6.75874 21.9672C6.69003 22.4168 6.74647 22.9752 7.01945 23.6652C7.80345 25.6465 8.77526 27.6253 9.68559 29.0945C9.92993 29.4887 10.4477 29.6103 10.842 29.366C11.2363 29.1216 11.3579 28.6039 11.1136 28.2095C10.2533 26.8215 9.33046 24.9397 8.58149 23.047C8.26139 22.2381 8.47398 22.0593 8.55402 21.9921C8.68312 21.8835 8.84422 21.8324 9.00709 21.8464C9.15215 21.8594 9.28066 21.9251 9.36893 22.0314C9.59975 22.3092 10.4265 23.342 11.2261 24.3409C12.0669 25.3913 12.8611 26.3833 13.1015 26.6728C14.0361 27.7978 15.1906 28.6354 16.3071 29.4456C18.4709 31.0156 20.3407 32.3725 20.6564 35.5237V36.2856H13.5883V35.6575C13.5883 35.4209 13.4885 35.1952 13.3133 35.036ZM12.2571 37.9655H20.6565V41.3253H12.2571V37.9655ZM30.7357 41.3253H22.3363V37.9655H30.7357V41.3253ZM41.2281 16.3277C40.9721 16.8599 40.4187 18.1804 39.7185 19.8509C38.792 22.0614 37.639 24.8126 36.6676 26.9491C35.4868 29.5467 35.0382 30.1652 32.9754 32.0403L29.6795 35.036C29.5044 35.1952 29.4045 35.4209 29.4045 35.6575V36.2857H22.3363V35.5238C22.6521 32.3726 24.5219 31.0157 26.6856 29.4457C27.8021 28.6355 28.9567 27.7979 29.8913 26.6729C30.1316 26.3837 30.9251 25.3924 31.7652 24.3429C32.5654 23.3432 33.3929 22.3095 33.6239 22.0315C33.7122 21.9251 33.8407 21.8595 33.9857 21.8465C34.1488 21.8326 34.3097 21.8836 34.4388 21.9921C34.5188 22.0594 34.7314 22.2382 34.4114 23.0471C33.6624 24.9398 32.7395 26.8215 31.8793 28.2096C31.635 28.6039 31.7566 29.1216 32.1509 29.3661C32.5451 29.6103 33.0629 29.4889 33.3073 29.0946C34.2176 27.6254 35.1894 25.6466 35.9734 23.6652C36.2464 22.9753 36.3029 22.4168 36.2342 21.9672L39.9803 15.8361C40.2764 15.3743 40.6527 15.2085 40.988 15.3929C41.1879 15.5027 41.4629 15.823 41.2281 16.3277Z" fill="#14B9FF"/>
<path d="M21.4962 21.8384C27.517 21.8384 32.4154 16.9402 32.4154 10.9192C32.4154 4.89828 27.517 0 21.4962 0C15.4753 0 10.577 4.89828 10.577 10.9192C10.577 16.9402 15.4753 21.8384 21.4962 21.8384ZM21.4962 1.67988C26.5908 1.67988 30.7355 5.82465 30.7355 10.9192C30.7355 16.0138 26.5908 20.1586 21.4962 20.1586C16.4016 20.1586 12.2568 16.0138 12.2568 10.9192C12.2568 5.82465 16.4016 1.67988 21.4962 1.67988Z" fill="#14B9FF"/>
<path d="M16.4566 13.8591H18.5564V15.9589C18.5564 16.4227 18.9325 16.7989 19.3964 16.7989H23.5961C24.06 16.7989 24.436 16.4227 24.436 15.9589V13.8591H26.5359C26.9998 13.8591 27.3758 13.4829 27.3758 13.0191V8.81942C27.3758 8.3556 26.9998 7.97947 26.5359 7.97947H24.436V5.87962C24.436 5.4158 24.06 5.03967 23.5961 5.03967H19.3964C18.9325 5.03967 18.5564 5.4158 18.5564 5.87962V7.97947H16.4566C15.9927 7.97947 15.6166 8.3556 15.6166 8.81942V13.0191C15.6166 13.4829 15.9927 13.8591 16.4566 13.8591ZM17.2965 9.65936H19.3964C19.8603 9.65936 20.2363 9.28323 20.2363 8.81942V6.71956H22.7562V8.81942C22.7562 9.28323 23.1322 9.65936 23.5961 9.65936H25.696V12.1792H23.5961C23.1322 12.1792 22.7562 12.5553 22.7562 13.0191V15.119H20.2363V13.0191C20.2363 12.5553 19.8603 12.1792 19.3964 12.1792H17.2965V9.65936Z" fill="#14B9FF"/>
</g>
<defs>
<clipPath id="clip0_5003_181">
<rect width="48" height="48" fill="white"/>
</clipPath>
</defs>
</svg>
