<svg width="24" height="24" viewBox="0 0 24 24" fill="none" xmlns="http://www.w3.org/2000/svg">
<g clip-path="url(#clip0_5003_163)">
<path d="M17.774 8L18.9999 9.1898L12.3187 15.6704C12.2116 15.7748 12.0843 15.8577 11.9441 15.9143C11.8039 15.9709 11.6535 16 11.5016 16C11.3497 16 11.1994 15.9709 11.0591 15.9143C10.9189 15.8577 10.7916 15.7748 10.6845 15.6704L3.99988 9.1898L5.22578 8.00112L11.4999 14.0836L17.774 8Z" fill="#212121"/>
<path d="M17.774 8L18.9999 9.1898L12.3187 15.6704C12.2116 15.7748 12.0843 15.8577 11.9441 15.9143C11.8039 15.9709 11.6535 16 11.5016 16C11.3497 16 11.1994 15.9709 11.0591 15.9143C10.9189 15.8577 10.7916 15.7748 10.6845 15.6704L3.99988 9.1898L5.22578 8.00112L11.4999 14.0836L17.774 8Z" fill="black" fill-opacity="0.2"/>
<path d="M17.774 8L18.9999 9.1898L12.3187 15.6704C12.2116 15.7748 12.0843 15.8577 11.9441 15.9143C11.8039 15.9709 11.6535 16 11.5016 16C11.3497 16 11.1994 15.9709 11.0591 15.9143C10.9189 15.8577 10.7916 15.7748 10.6845 15.6704L3.99988 9.1898L5.22578 8.00112L11.4999 14.0836L17.774 8Z" fill="black" fill-opacity="0.2"/>
</g>
<defs>
<clipPath id="clip0_5003_163">
<rect width="24" height="24" fill="white"/>
</clipPath>
</defs>
</svg>
