<svg width="24" height="24" viewBox="0 0 24 24" fill="none" xmlns="http://www.w3.org/2000/svg">
<path fill-rule="evenodd" clip-rule="evenodd" d="M12 0.384521C14.1634 0.409209 16.1179 0.940917 17.8634 1.97965C19.588 2.99764 21.0227 4.44106 22.0301 6.17189C23.0625 7.92787 23.591 9.89417 23.6156 12.0708C23.5543 15.0489 22.615 17.5925 20.7977 19.7016C18.9803 21.8107 16.6528 23.1155 14.2433 23.6157V15.266H16.5212L17.0364 11.9847H13.587V9.8356C13.5679 9.39007 13.7088 8.95239 13.9842 8.6017C14.2601 8.25005 14.7459 8.06523 15.4415 8.04723H17.5245V5.17293C17.4946 5.16331 17.211 5.12529 16.6737 5.05885C16.0644 4.98756 15.4516 4.94948 14.8381 4.94478C13.4496 4.95119 12.3514 5.34286 11.5437 6.11981C10.7359 6.89654 10.3233 8.02031 10.3058 9.49111V11.9847H7.68078V15.266H10.3058V23.6157C7.34727 23.1155 5.01969 21.8107 3.20235 19.7016C1.385 17.5925 0.445721 15.0489 0.384399 12.0708C0.408934 9.89407 0.937428 7.92777 1.96988 6.17189C2.97735 4.44106 4.41202 2.99764 6.13668 1.97965C7.8821 0.941117 9.83654 0.409409 12 0.384521Z" fill="#14B9FF"/>
</svg>
