<svg width="69" height="50" viewBox="0 0 69 50" fill="none" xmlns="http://www.w3.org/2000/svg">
<path d="M5.78876 11.8668C5.78876 11.3559 5.88305 10.8489 6.07165 10.3459C6.26024 9.83494 6.53527 9.37986 6.89674 8.98067C7.25821 8.58147 7.69826 8.25813 8.2169 8.01063C8.73553 7.76313 9.32488 7.63938 9.98496 7.63938C10.7708 7.63938 11.4505 7.81103 12.0241 8.15434C12.6056 8.49764 13.0378 8.94474 13.3207 9.49563L11.8355 10.5495C11.7412 10.3259 11.6194 10.1423 11.4701 9.99861C11.3287 9.84692 11.1715 9.72716 10.9986 9.63934C10.8258 9.54353 10.649 9.47966 10.4682 9.44772C10.2875 9.4078 10.1107 9.38784 9.93781 9.38784C9.56848 9.38784 9.2463 9.46369 8.97127 9.61538C8.69624 9.76708 8.46835 9.96268 8.28762 10.2022C8.10688 10.4417 7.9733 10.7132 7.88686 11.0166C7.80042 11.3199 7.7572 11.6273 7.7572 11.9387C7.7572 12.274 7.80828 12.5974 7.91043 12.9087C8.01259 13.2201 8.15796 13.4955 8.34655 13.7351C8.543 13.9746 8.77482 14.1662 9.04199 14.3099C9.31702 14.4456 9.62349 14.5135 9.96138 14.5135C10.1343 14.5135 10.3111 14.4935 10.4918 14.4536C10.6804 14.4057 10.8572 14.3378 11.0222 14.25C11.1951 14.1542 11.3523 14.0345 11.4937 13.8907C11.6351 13.7391 11.7491 13.5554 11.8355 13.3399L13.415 14.286C13.2893 14.5973 13.1007 14.8768 12.8492 15.1243C12.6056 15.3718 12.3227 15.5793 12.0005 15.747C11.6784 15.9147 11.3365 16.0424 10.9751 16.1302C10.6136 16.2181 10.26 16.262 9.91423 16.262C9.30916 16.262 8.75124 16.1382 8.24047 15.8907C7.73755 15.6352 7.30143 15.2999 6.9321 14.8847C6.57063 14.4696 6.28774 13.9985 6.08343 13.4716C5.88698 12.9447 5.78876 12.4097 5.78876 11.8668Z" fill="#212121"/>
<path d="M23.9936 14.0105C23.9936 14.3778 23.919 14.6971 23.7697 14.9686C23.6204 15.24 23.4161 15.4676 23.1567 15.6512C22.8974 15.8268 22.5949 15.9626 22.2491 16.0584C21.9034 16.1462 21.538 16.1901 21.1529 16.1901H17.0746V7.68728H21.7305C22.0213 7.68728 22.2845 7.75115 22.5202 7.87889C22.756 8.00663 22.9564 8.1743 23.1214 8.38188C23.2864 8.58147 23.4121 8.81301 23.4986 9.07647C23.5929 9.33196 23.64 9.59542 23.64 9.86688C23.64 10.2741 23.5379 10.6573 23.3335 11.0166C23.1371 11.3758 22.8385 11.6473 22.4377 11.8309C22.9171 11.9746 23.2943 12.2301 23.5693 12.5974C23.8522 12.9646 23.9936 13.4357 23.9936 14.0105ZM22.0252 13.6153C22.0252 13.3518 21.9505 13.1283 21.8012 12.9447C21.6519 12.761 21.4633 12.6692 21.2354 12.6692H19.0077V14.5255H21.1529C21.4044 14.5255 21.6126 14.4416 21.7777 14.274C21.9427 14.1063 22.0252 13.8868 22.0252 13.6153ZM19.0077 9.36389V11.1243H20.9054C21.1176 11.1243 21.3062 11.0525 21.4712 10.9088C21.6362 10.7651 21.7187 10.5415 21.7187 10.2381C21.7187 9.95869 21.6441 9.74313 21.4948 9.59143C21.3533 9.43974 21.1804 9.36389 20.9761 9.36389H19.0077Z" fill="#212121"/>
<path d="M27.9597 16.1901V7.68728H29.8928V16.1901H27.9597Z" fill="#212121"/>
<path d="M40.4026 5.22026C40.4026 5.48373 40.3476 5.72724 40.2376 5.95079C40.1276 6.16635 39.9704 6.35397 39.7661 6.51365C39.5697 6.66534 39.3339 6.7851 39.0589 6.87292C38.7839 6.96075 38.4774 7.00466 38.1395 7.00466C37.8016 7.00466 37.4951 6.96075 37.2201 6.87292C36.9451 6.7851 36.7054 6.66534 36.5011 6.51365C36.3046 6.35397 36.1514 6.16635 36.0414 5.95079C35.9314 5.72724 35.8764 5.48373 35.8764 5.22026H37.0433C37.0433 5.32405 37.0708 5.42385 37.1258 5.51966C37.1887 5.60748 37.2673 5.68732 37.3616 5.75917C37.4637 5.82304 37.5816 5.87494 37.7152 5.91486C37.8488 5.95478 37.9902 5.97474 38.1395 5.97474C38.4224 5.97474 38.666 5.90288 38.8703 5.75917C39.0825 5.61546 39.2082 5.43583 39.2475 5.22026H40.4026ZM36.23 13.1363L40.1669 7.68728H41.6049V16.1901H39.6718V10.8728L35.7821 16.1901H34.2851V7.68728H36.23V13.1363Z" fill="#212121"/>
<path d="M6.60025 22.9196C6.97743 22.5204 7.40177 22.221 7.87325 22.0214C8.35259 21.8138 8.91837 21.71 9.57059 21.71C10.3957 21.71 11.0518 21.8937 11.539 22.2609C12.0262 22.6282 12.2698 23.1711 12.2698 23.8896C12.2698 24.2888 12.1716 24.6601 11.9752 25.0034C11.7866 25.3467 11.4605 25.6022 10.9968 25.7698C11.5155 25.8976 11.9084 26.1451 12.1755 26.5123C12.4506 26.8716 12.5881 27.3107 12.5881 27.8297C12.5881 28.2289 12.5095 28.5881 12.3523 28.9075C12.1952 29.2189 11.9752 29.4823 11.6923 29.6979C11.4172 29.9135 11.0872 30.0771 10.7022 30.1889C10.325 30.3007 9.91635 30.3566 9.47629 30.3566C8.83979 30.3566 8.28187 30.2648 7.80253 30.0811C7.32319 29.8895 6.86742 29.5941 6.43523 29.1949L7.42534 27.7458C7.69252 28.0013 7.97934 28.2089 8.2858 28.3686C8.60012 28.5203 8.96945 28.5961 9.39379 28.5961C9.7474 28.5961 10.0381 28.5083 10.266 28.3327C10.5018 28.149 10.6196 27.8776 10.6196 27.5183C10.6196 27.2149 10.5096 26.9594 10.2896 26.7519C10.0774 26.5443 9.73168 26.4405 9.25234 26.4405H8.23865V25.0752H9.1109C9.5588 25.0752 9.8967 24.9954 10.1246 24.8357C10.3525 24.676 10.4664 24.4485 10.4664 24.1531C10.4664 23.8976 10.3839 23.702 10.2189 23.5663C10.0539 23.4226 9.79848 23.3507 9.45272 23.3507C9.07553 23.3507 8.73764 23.4186 8.43903 23.5543C8.14828 23.69 7.87325 23.8856 7.61394 24.1411L6.60025 22.9196Z" fill="#212121"/>
<path d="M19.2375 21.7819H20.982L24.0348 30.2847H22.0546L21.4063 28.3806H18.8014L18.1649 30.2847H16.1847L19.2375 21.7819ZM21.0881 27.0273L20.1098 24.0214L19.1079 27.0273H21.0881Z" fill="#212121"/>
<path d="M5.78876 40.0561C5.78876 39.5451 5.88305 39.0381 6.07165 38.5351C6.26024 38.0242 6.53527 37.5691 6.89674 37.1699C7.25821 36.7707 7.69826 36.4473 8.2169 36.1998C8.73553 35.9523 9.32488 35.8286 9.98496 35.8286C10.7708 35.8286 11.4505 36.0002 12.0241 36.3436C12.6056 36.6869 13.0378 37.134 13.3207 37.6848L11.8355 38.7387C11.7412 38.5152 11.6194 38.3315 11.4701 38.1878C11.3287 38.0361 11.1715 37.9164 10.9986 37.8286C10.8258 37.7327 10.649 37.6689 10.4682 37.6369C10.2875 37.597 10.1107 37.5771 9.93781 37.5771C9.56848 37.5771 9.2463 37.6529 8.97127 37.8046C8.69624 37.9563 8.46835 38.1519 8.28762 38.3914C8.10688 38.6309 7.9733 38.9024 7.88686 39.2058C7.80042 39.5092 7.7572 39.8165 7.7572 40.1279C7.7572 40.4632 7.80828 40.7866 7.91043 41.098C8.01259 41.4093 8.15796 41.6848 8.34655 41.9243C8.543 42.1638 8.77482 42.3554 9.04199 42.4991C9.31702 42.6348 9.62349 42.7027 9.96138 42.7027C10.1343 42.7027 10.3111 42.6828 10.4918 42.6428C10.6804 42.5949 10.8572 42.5271 11.0222 42.4392C11.1951 42.3434 11.3523 42.2237 11.4937 42.08C11.6351 41.9283 11.7491 41.7446 11.8355 41.5291L13.415 42.4752C13.2893 42.7865 13.1007 43.066 12.8492 43.3135C12.6056 43.561 12.3227 43.7686 12.0005 43.9362C11.6784 44.1039 11.3365 44.2316 10.9751 44.3194C10.6136 44.4073 10.26 44.4512 9.91423 44.4512C9.30916 44.4512 8.75124 44.3274 8.24047 44.0799C7.73755 43.8244 7.30143 43.4891 6.9321 43.074C6.57063 42.6588 6.28774 42.1878 6.08343 41.6608C5.88698 41.1339 5.78876 40.599 5.78876 40.0561Z" fill="#212121"/>
<path d="M23.9936 42.1997C23.9936 42.567 23.919 42.8863 23.7697 43.1578C23.6204 43.4292 23.4161 43.6568 23.1567 43.8404C22.8974 44.0161 22.5949 44.1518 22.2491 44.2476C21.9034 44.3354 21.538 44.3793 21.1529 44.3793H17.0746V35.8765H21.7305C22.0213 35.8765 22.2845 35.9404 22.5202 36.0681C22.756 36.1959 22.9564 36.3635 23.1214 36.5711C23.2864 36.7707 23.4121 37.0022 23.4986 37.2657C23.5929 37.5212 23.64 37.7846 23.64 38.0561C23.64 38.4633 23.5379 38.8465 23.3335 39.2058C23.1371 39.565 22.8385 39.8365 22.4377 40.0201C22.9171 40.1638 23.2943 40.4193 23.5693 40.7866C23.8522 41.1538 23.9936 41.6249 23.9936 42.1997ZM22.0252 41.8045C22.0252 41.5411 21.9505 41.3175 21.8012 41.1339C21.6519 40.9503 21.4633 40.8584 21.2354 40.8584H19.0077V42.7147H21.1529C21.4044 42.7147 21.6126 42.6309 21.7777 42.4632C21.9427 42.2955 22.0252 42.076 22.0252 41.8045ZM19.0077 37.5531V39.3136H20.9054C21.1176 39.3136 21.3062 39.2417 21.4712 39.098C21.6362 38.9543 21.7187 38.7307 21.7187 38.4273C21.7187 38.1479 21.6441 37.9323 21.4948 37.7807C21.3533 37.629 21.1804 37.5531 20.9761 37.5531H19.0077Z" fill="#212121"/>
<path d="M31.5901 44.4512C30.9693 44.4512 30.4036 44.3274 29.8928 44.0799C29.382 43.8324 28.9459 43.5091 28.5844 43.1099C28.2229 42.7027 27.9401 42.2396 27.7357 41.7207C27.5393 41.2017 27.4411 40.6668 27.4411 40.1159C27.4411 39.5571 27.5432 39.0182 27.7475 38.4992C27.9597 37.9802 28.2504 37.5252 28.6198 37.134C28.997 36.7348 29.4409 36.4194 29.9517 36.1879C30.4625 35.9484 31.0204 35.8286 31.6255 35.8286C32.2463 35.8286 32.812 35.9523 33.3228 36.1998C33.8336 36.4473 34.2697 36.7747 34.6312 37.1819C34.9927 37.589 35.2716 38.0521 35.4681 38.5711C35.6645 39.09 35.7627 39.6169 35.7627 40.1519C35.7627 40.7107 35.6567 41.2496 35.4445 41.7686C35.2402 42.2876 34.9534 42.7466 34.584 43.1458C34.2147 43.537 33.7747 43.8524 33.2639 44.0919C32.7531 44.3314 32.1952 44.4512 31.5901 44.4512ZM29.4095 40.1399C29.4095 40.4672 29.4567 40.7866 29.551 41.098C29.6453 41.4013 29.7828 41.6728 29.9635 41.9123C30.1521 42.1518 30.3839 42.3434 30.6589 42.4871C30.934 42.6309 31.2483 42.7027 31.6019 42.7027C31.9712 42.7027 32.2934 42.6269 32.5684 42.4752C32.8435 42.3235 33.0714 42.1279 33.2521 41.8884C33.4328 41.6409 33.5664 41.3654 33.6529 41.062C33.7472 40.7507 33.7943 40.4353 33.7943 40.1159C33.7943 39.7886 33.7472 39.4732 33.6529 39.1698C33.5586 38.8585 33.4171 38.587 33.2285 38.3555C33.0399 38.116 32.8081 37.9284 32.5331 37.7926C32.2659 37.6489 31.9555 37.5771 31.6019 37.5771C31.2326 37.5771 30.9104 37.6529 30.6354 37.8046C30.3682 37.9483 30.1403 38.1399 29.9517 38.3794C29.771 38.619 29.6335 38.8944 29.5392 39.2058C29.4527 39.5092 29.4095 39.8205 29.4095 40.1399Z" fill="#212121"/>
<path d="M44.9068 37.601H41.571V44.3793H39.6261V35.8765H44.9068V37.601Z" fill="#212121"/>
<path d="M51.6424 44.4512C51.0216 44.4512 50.4559 44.3274 49.9451 44.0799C49.4343 43.8324 48.9982 43.5091 48.6367 43.1099C48.2752 42.7027 47.9924 42.2396 47.7881 41.7207C47.5916 41.2017 47.4934 40.6668 47.4934 40.1159C47.4934 39.5571 47.5955 39.0182 47.7998 38.4992C48.012 37.9802 48.3028 37.5252 48.6721 37.134C49.0493 36.7348 49.4932 36.4194 50.004 36.1879C50.5148 35.9484 51.0727 35.8286 51.6778 35.8286C52.2986 35.8286 52.8644 35.9523 53.3751 36.1998C53.8859 36.4473 54.322 36.7747 54.6835 37.1819C55.045 37.589 55.3239 38.0521 55.5204 38.5711C55.7168 39.09 55.8151 39.6169 55.8151 40.1519C55.8151 40.7107 55.709 41.2496 55.4968 41.7686C55.2925 42.2876 55.0057 42.7466 54.6363 43.1458C54.267 43.537 53.827 43.8524 53.3162 44.0919C52.8054 44.3314 52.2475 44.4512 51.6424 44.4512ZM49.4618 40.1399C49.4618 40.4672 49.509 40.7866 49.6033 41.098C49.6976 41.4013 49.8351 41.6728 50.0158 41.9123C50.2044 42.1518 50.4362 42.3434 50.7113 42.4871C50.9863 42.6309 51.3006 42.7027 51.6542 42.7027C52.0235 42.7027 52.3457 42.6269 52.6208 42.4752C52.8958 42.3235 53.1237 42.1279 53.3044 41.8884C53.4851 41.6409 53.6187 41.3654 53.7052 41.062C53.7995 40.7507 53.8466 40.4353 53.8466 40.1159C53.8466 39.7886 53.7995 39.4732 53.7052 39.1698C53.6109 38.8585 53.4694 38.587 53.2808 38.3555C53.0922 38.116 52.8604 37.9284 52.5854 37.7926C52.3182 37.6489 52.0078 37.5771 51.6542 37.5771C51.2849 37.5771 50.9627 37.6529 50.6877 37.8046C50.4205 37.9483 50.1926 38.1399 50.004 38.3794C49.8233 38.619 49.6858 38.8944 49.5915 39.2058C49.505 39.5092 49.4618 39.8205 49.4618 40.1399Z" fill="#212121"/>
<g clip-path="url(#clip0_5003_144)">
<path d="M30.8697 29.9969C30.8697 29.9969 29.7414 30.6231 28.237 30.8224C28.0634 30.8508 27.8899 30.8793 27.7452 30.9362V24.162C29.5389 22.5966 32.5477 22.1412 35.5275 22.4827C39.8381 22.9666 43.6859 20.2341 44.3223 18.9248C44.9588 17.6155 47.0418 18.5264 48.0544 18.6117C49.0959 18.6971 50.0506 17.7863 50.0506 17.7863C50.0506 17.7863 49.038 20.6042 46.2028 20.8034C47.5336 20.7749 48.1411 20.718 48.2858 20.5757C48.4305 20.4618 47.2443 22.8527 44.2934 22.5966C44.6116 22.8527 45.9135 22.9097 46.3185 22.9097C45.7978 23.4505 44.4091 24.6459 41.3714 24.1051C41.6607 24.3328 42.818 24.7028 43.1073 24.6459C43.3966 24.589 41.2557 26.0975 38.8256 25.1013C38.1023 24.6744 38.8545 25.8413 40.1274 25.8698C39.1149 26.2968 37.7262 26.6668 35.5275 25.8698C35.9036 26.126 36.4822 26.6098 37.2633 26.6668C38.0444 26.7522 34.9489 27.5207 33.1841 26.4106C33.4445 26.7806 34.1967 27.1791 34.6306 27.293C35.0646 27.4068 33.0684 28.4315 30.9565 27.3783C31.3904 27.6914 31.7665 27.9476 32.3741 28.1468C32.9816 28.3461 31.3326 28.9723 29.5968 28.5169C30.0018 28.7161 30.8697 28.9723 31.4772 28.9153C32.0848 28.8584 30.754 30.0539 29.3942 29.7408C29.8282 29.8831 30.8697 29.9969 30.8697 29.9969ZM68.7975 16.7047C67.6692 16.9324 65.3258 17.6155 60.6391 17.9571C55.8656 18.2986 53.5801 18.1848 50.8317 17.8717C50.6292 19.4087 48.9223 20.2626 48.9223 20.2626C57.5435 21.2019 60.4366 20.2626 63.6768 19.4372C66.8881 18.6402 69.81 16.5339 68.7975 16.7047ZM62.6353 20.4049C59.5687 20.8319 56.097 21.3442 49.0091 20.6326C49.0091 20.6326 47.9965 22.0842 47.0418 22.625C48.2858 22.8812 55.287 23.1089 58.0932 22.7958C63.3007 22.2265 65.0076 20.9457 66.483 19.8926C67.8428 18.9533 65.1812 20.0634 62.6353 20.4049ZM59.5397 23.3081C56.4442 23.6497 53.9272 23.8489 46.7525 22.9666C46.7525 22.9666 45.6821 24.2474 44.1777 24.5036C45.4217 24.7882 50.6002 25.8983 54.9398 25.5567C60.1762 25.1582 61.912 23.9059 63.4164 22.9097C64.7761 21.9988 62.0567 23.0235 59.5397 23.3081ZM56.3285 25.9552C53.0593 26.1544 50.0506 26.2683 43.6569 24.7882C43.6569 24.7882 42.4708 25.756 40.9664 25.8983C43.0494 26.8091 46.8104 27.8053 51.1499 27.7768C56.4152 27.7199 58.3247 26.8091 59.8001 25.8413C61.1598 24.959 58.8743 25.8129 56.3285 25.9552ZM52.5096 28.2892C49.2116 28.2892 45.3638 28.1468 40.4746 26.126C40.4746 26.126 39.6356 26.8375 38.1023 26.7806C40.0117 27.9761 42.8758 29.2284 47.1864 29.6269C52.5675 30.1393 55.1712 29.0292 56.7913 28.2892C58.2957 27.6061 55.3159 28.2892 52.5096 28.2892ZM47.5336 30.1108C44.4091 29.7692 41.4872 29.3992 37.6683 27.0083C37.6683 27.0083 36.5401 27.663 35.1514 27.4637C36.7426 28.8015 38.7388 30.0254 42.6444 30.7939C47.5336 31.7616 49.7323 31.0501 51.3235 30.4524C52.7989 29.8831 50.2531 30.4239 47.5336 30.1108ZM41.8632 31.1639C39.462 30.6516 37.4948 30.2531 34.9778 27.8053C34.9778 27.8053 33.9652 28.3461 32.9527 28.2322C33.9363 29.5985 35.1803 30.7085 38.1602 31.6193C41.8633 32.7579 43.7727 32.1886 45.1902 31.6763C46.4632 31.2493 44.3802 31.6763 41.8632 31.1639ZM32.7212 28.4884C32.7212 28.4884 32.4898 28.83 31.998 28.8869C32.2005 29.2284 33.0973 31.1639 35.1514 32.0747C37.379 33.0709 38.6809 32.5017 39.2017 32.3878C37.3212 32.2171 34.3703 31.1639 32.7212 28.4884ZM32.9527 30.9647C32.0848 29.9685 31.8244 29.2284 31.8244 29.2284C31.8244 29.2284 31.564 29.6838 31.1011 29.8831C31.2747 30.1393 32.2294 31.6763 33.2709 32.2171C34.4571 32.7863 35.1514 32.5017 35.1514 32.5017C35.1514 32.5017 33.8206 31.9609 32.9527 30.9647ZM30.9276 30.2816V30.2531C30.9276 30.2531 29.8861 30.7654 29.3075 30.8224C30.0886 31.6478 31.3326 32.4163 32.4609 32.5301C33.4156 32.6155 31.4194 31.5055 30.9276 30.2816Z" fill="#212121"/>
</g>
<path d="M0 48.9761H55.7624V50H0V48.9761Z" fill="#212121"/>
<path d="M0 0H41.6539V1.02389H0V0Z" fill="#212121"/>
<path d="M1.00792 0L1.00792 50L0.00016435 50L0.000166535 -4.40503e-08L1.00792 0Z" fill="#212121"/>
<defs>
<clipPath id="clip0_5003_144">
<rect width="41.2548" height="15.9677" fill="white" transform="translate(27.7452 16.7047)"/>
</clipPath>
</defs>
</svg>
